<?xml version="1.0" standalone="no"?>
<!DOCTYPE svg PUBLIC "-//W3C//DTD SVG 20010904//EN"
 "http://www.w3.org/TR/2001/REC-SVG-20010904/DTD/svg10.dtd">
<svg version="1.0" xmlns="http://www.w3.org/2000/svg"
 width="400.000000pt" height="400.000000pt" viewBox="0 0 400.000000 400.000000"
 preserveAspectRatio="xMidYMid meet">
<metadata>
Created by potrace 1.11, written by Peter Selinger 2001-2013
</metadata>
<g transform="translate(0.000000,400.000000) scale(0.100000,-0.100000)"
fill="#000000" stroke="none">
<path d="M517 3993 c-4 -3 -7 -19 -7 -35 l0 -30 -67 7 c-38 3 -108 10 -158 15
-50 5 -134 12 -187 16 l-97 6 -1 -230 0 -230 30 -10 c20 -8 30 -18 30 -31 0
-26 -17 -27 -25 -2 -8 26 -35 36 -35 13 0 -9 14 -25 31 -34 25 -15 30 -23 27
-50 -2 -28 -8 -34 -30 -36 -27 -3 -28 -5 -28 -66 0 -61 1 -62 33 -74 40 -14
59 -55 43 -92 -15 -35 -46 -55 -46 -29 0 5 5 7 10 4 6 -3 10 -2 10 3 0 5 -11
12 -25 15 -26 4 -26 4 -24 -64 1 -37 5 -68 8 -67 3 1 13 -2 21 -5 8 -3 29 -7
45 -9 22 -2 31 -9 33 -25 4 -27 -6 -28 -53 -9 -38 16 -41 12 -24 -31 13 -36
12 -39 -11 -35 -18 3 -20 -3 -20 -47 0 -51 9 -65 45 -67 70 -3 85 -5 85 -13 0
-5 -12 -12 -27 -14 -16 -2 0 -5 34 -6 l61 -1 7 50 c4 27 3 55 -1 62 -15 23
-13 39 8 63 17 20 28 23 62 20 38 -4 254 -19 423 -29 49 -3 73 -1 77 7 3 9 5
8 5 0 1 -7 12 -13 25 -13 20 0 26 9 44 65 21 67 73 145 97 145 7 0 19 7 26 16
11 14 11 18 -4 29 -31 22 19 62 56 43 24 -12 22 -31 -3 -23 -15 5 -20 2 -20
-14 0 -10 -3 -28 -6 -38 -5 -15 -4 -15 5 -3 8 12 11 12 17 -3 3 -9 24 -27 46
-39 40 -23 68 -62 68 -94 0 -12 -5 -14 -17 -9 -10 4 -26 7 -35 7 -10 0 -20 3
-23 9 -14 22 -145 -2 -145 -28 0 -7 -6 -13 -13 -13 -8 0 -19 -11 -25 -25 -11
-24 -10 -25 33 -36 52 -13 60 -21 46 -46 -5 -10 -13 -27 -17 -38 -7 -20 -8
-20 -11 1 -3 16 -10 20 -26 17 -12 -2 -71 0 -132 5 -80 7 -114 7 -124 -2 -11
-8 -13 -8 -7 1 5 10 -10 11 -68 6 -61 -5 -76 -3 -76 8 0 11 -2 12 -9 1 -7 -11
-9 -10 -14 3 -5 12 -11 14 -26 6 -11 -6 -21 -7 -23 -2 -2 4 -44 11 -94 15 -71
6 -91 4 -92 -6 -1 -7 -5 -30 -8 -50 -5 -31 -3 -38 10 -38 11 0 14 4 9 13 -4 6
5 4 20 -6 27 -17 28 -17 25 -1 -2 12 7 23 25 32 33 16 47 9 47 -24 0 -15 6
-24 15 -24 9 0 15 9 15 25 0 22 3 24 19 16 10 -6 38 -15 62 -20 38 -9 45 -7
57 10 7 10 20 19 29 19 13 0 11 -6 -10 -28 -15 -15 -27 -31 -27 -35 0 -4 26
-7 58 -7 79 0 102 -8 102 -34 0 -15 -9 -25 -30 -33 -24 -9 -30 -17 -30 -41 0
-18 6 -32 16 -36 26 -10 102 -7 144 6 39 13 40 14 36 51 -4 32 -2 38 11 33 10
-4 31 10 62 41 25 26 51 48 56 49 20 4 85 46 85 56 0 6 7 7 16 4 8 -3 32 3 53
14 21 10 60 24 87 31 27 6 67 22 89 34 22 13 57 27 78 33 42 12 48 2 22 -36
-14 -19 -14 -21 -1 -16 13 5 12 -3 -5 -44 -12 -28 -29 -59 -40 -71 -10 -11
-16 -27 -13 -35 5 -12 -1 -16 -22 -17 -25 0 -26 -2 -9 -8 22 -9 24 -9 -185
-30 -63 -7 -128 -16 -145 -21 -29 -8 -29 -8 -5 -10 14 -1 30 -1 35 0 6 1 17 2
25 2 15 0 138 12 234 24 l49 5 -5 -45 c-4 -35 -2 -43 9 -39 11 4 11 0 4 -20
-5 -14 -7 -27 -4 -30 3 -3 -4 -15 -15 -27 -20 -21 -27 -70 -11 -70 5 0 9 7 9
15 0 8 9 22 19 32 21 20 96 164 106 205 4 14 15 34 24 43 16 14 19 14 31 0 7
-8 9 -15 6 -15 -4 0 -2 -10 5 -22 10 -19 12 -19 21 -5 11 21 38 22 38 2 0 -9
21 -55 46 -104 40 -75 61 -136 66 -188 1 -7 5 -13 10 -13 5 0 7 -12 6 -27 -2
-21 1 -28 14 -27 13 1 19 -9 24 -42 3 -24 9 -42 13 -40 4 3 7 -3 8 -12 4 -51
12 -99 18 -113 7 -18 1 -234 -8 -289 -3 -19 -8 -62 -12 -95 -10 -99 -45 -257
-66 -300 -25 -49 -79 -135 -85 -135 -3 0 0 9 6 20 6 11 8 20 4 20 -3 0 3 16
15 35 11 19 16 35 11 35 -6 0 -10 5 -10 11 0 5 4 8 9 4 6 -3 15 3 20 14 16 30
13 36 -8 17 -19 -17 -20 -17 -31 4 -9 16 -9 25 -1 33 6 6 12 27 12 46 1 20 3
27 6 16 2 -11 9 -33 16 -50 l11 -29 8 34 c4 19 5 74 1 121 -4 63 -2 88 7 94 8
5 9 10 2 14 -6 3 -13 33 -16 66 -2 33 -8 83 -11 110 -5 39 -4 47 5 35 10 -13
11 -12 5 5 -4 11 -16 52 -26 90 -10 39 -21 80 -25 91 -3 12 1 35 10 52 18 35
16 38 -38 41 -22 1 -43 4 -47 6 -4 3 -27 1 -53 -4 -25 -4 -48 -6 -51 -2 -4 3
-31 7 -60 8 -48 2 -54 0 -52 -17 1 -20 22 -34 37 -25 10 6 25 -34 16 -42 -3
-3 4 -23 14 -44 11 -21 20 -43 20 -49 0 -12 24 -40 34 -40 3 0 4 19 2 43 -2
23 -2 34 1 25 5 -21 19 -24 26 -5 3 6 2 -7 0 -30 -4 -30 -2 -43 6 -43 7 0 9
-5 6 -10 -3 -6 -2 -10 4 -10 6 0 7 -7 4 -17 -4 -11 -3 -14 5 -9 7 4 12 2 12
-6 0 -10 3 -9 10 2 14 23 22 6 10 -25 -6 -15 -8 -30 -6 -33 3 -3 8 3 12 12 5
14 9 14 22 4 13 -11 14 -9 9 12 -4 14 -4 19 -1 12 4 -10 9 -10 19 -2 11 10 13
5 11 -22 -2 -18 -1 -25 1 -15 9 37 21 14 28 -54 9 -84 -9 -216 -36 -276 -17
-39 -39 -58 -39 -34 0 5 -13 12 -29 16 -16 3 -35 13 -42 21 -15 18 -2 18 35
-1 39 -20 44 -12 9 14 -61 45 -69 61 -32 61 16 0 19 -4 14 -22 -5 -18 -4 -20
4 -8 10 13 12 13 21 0 6 -10 10 -11 10 -2 0 6 5 12 11 12 5 0 7 -4 4 -10 -3
-5 -2 -10 3 -10 5 0 12 9 15 19 3 14 1 18 -9 14 -10 -3 -14 3 -14 20 0 14 -4
28 -8 31 -4 2 -7 -12 -5 -32 1 -20 0 -29 -3 -19 -6 19 -6 19 -51 23 -27 2 -33
-1 -33 -17 0 -23 -35 -26 -44 -3 -9 24 -7 28 8 15 8 -7 17 -8 20 -3 7 13 -13
72 -25 72 -5 0 -9 7 -9 15 0 8 -5 24 -12 34 -9 15 -9 28 -1 56 7 21 9 34 6 31
-3 -3 -12 2 -19 12 -12 16 -13 16 -14 0 0 -9 6 -18 13 -21 7 -2 8 -8 3 -13 -5
-5 -11 -4 -13 4 -3 6 -9 10 -14 7 -5 -4 -6 1 -3 9 8 20 -5 20 -27 0 -16 -14
-17 -13 -15 9 0 14 4 23 9 20 6 -4 11 12 8 30 0 4 4 7 10 7 6 0 8 -9 4 -20 -4
-14 -2 -18 7 -15 17 7 38 53 37 79 -1 18 -2 18 -8 -3 -11 -39 -26 -35 -38 9
-9 35 -8 40 4 35 11 -4 13 -1 9 11 -3 8 -6 20 -6 25 0 5 -4 9 -10 9 -5 0 -10
-8 -10 -17 0 -15 -4 -13 -21 7 -17 21 -19 22 -10 3 9 -19 8 -22 -12 -26 l-22
-4 23 -2 c16 -1 22 -7 21 -23 -1 -20 -2 -21 -6 -3 -5 16 -8 14 -24 -15 -10
-19 -18 -29 -19 -22 0 19 -17 14 -23 -7 -3 -14 -1 -18 9 -14 22 8 16 -3 -9
-20 -26 -17 -27 -15 -28 41 -1 18 -4 21 -15 11 -13 -11 -13 -24 4 -68 3 -9 1
-12 -6 -7 -7 4 -12 16 -12 27 0 29 -16 23 -31 -13 -7 -17 -15 -26 -17 -20 -2
6 2 21 8 33 7 12 16 34 20 50 7 23 6 27 -8 22 -13 -5 -14 -3 -5 7 9 10 8 16
-4 28 -13 14 -13 16 2 25 15 8 15 10 0 27 -18 20 -31 105 -15 95 6 -4 7 2 2
14 -4 11 -10 19 -13 18 -4 -1 -16 7 -28 17 -16 14 -21 16 -21 5 0 -8 9 -20 20
-27 15 -9 20 -9 20 0 0 6 3 9 6 6 3 -4 -1 -25 -8 -47 -8 -23 -17 -39 -21 -35
-3 3 -2 16 3 29 8 22 5 35 -10 35 -4 0 -7 -6 -7 -12 -1 -29 -13 -72 -22 -81
-5 -5 -12 16 -17 55 -4 34 -9 66 -10 71 -1 4 -2 15 -3 24 -1 13 -4 14 -13 5
-9 -9 -15 -5 -25 19 -7 17 -13 41 -13 53 0 16 -2 18 -9 7 -7 -11 -13 -6 -27
20 -9 19 -19 29 -21 23 -2 -7 5 -27 16 -45 12 -19 21 -43 21 -53 0 -29 -56 63
-70 114 -12 45 -24 55 -14 13 9 -43 38 -113 47 -113 4 0 7 -6 7 -14 0 -7 10
-28 23 -47 13 -19 22 -46 20 -61 -1 -16 2 -28 8 -28 5 0 9 -4 9 -10 0 -5 -7
-7 -15 -4 -18 7 -19 0 -5 -27 7 -13 7 -19 0 -19 -5 0 -10 5 -10 10 0 6 -7 10
-15 10 -8 0 -15 6 -15 14 0 8 -7 16 -15 20 -26 10 -16 -21 15 -47 17 -14 30
-33 30 -42 0 -9 5 -13 10 -10 6 3 10 -1 10 -10 0 -9 9 -28 20 -43 16 -20 18
-27 8 -34 -23 -14 -42 -9 -98 28 -46 31 -51 33 -31 11 13 -14 42 -39 65 -54
44 -30 81 -63 69 -63 -4 0 2 -7 13 -16 18 -15 18 -15 0 -10 -17 6 -17 5 -5
-11 9 -11 10 -14 2 -9 -8 4 -13 2 -13 -4 0 -6 -5 -8 -12 -4 -7 4 -8 3 -4 -5 9
-13 -12 -44 -24 -36 -4 3 -10 -4 -13 -14 -5 -22 29 -57 37 -38 3 7 5 6 5 -3 1
-21 -43 -60 -66 -60 -10 0 -25 6 -32 13 -11 10 -13 10 -7 0 10 -18 1 -16 -18
3 -10 9 -16 11 -16 4 0 -7 -8 -9 -20 -5 -12 4 -36 8 -56 10 -19 2 -40 7 -47
13 -7 5 -30 15 -52 22 -22 7 -55 26 -73 43 -22 22 -32 26 -32 16 0 -34 68 -71
215 -119 80 -25 112 -31 160 -28 33 3 54 3 47 0 -6 -2 -12 -10 -12 -18 0 -8
-7 -14 -15 -14 -8 0 -14 -6 -13 -12 2 -7 -6 -13 -18 -12 -11 0 -28 -10 -37
-22 -16 -22 -16 -24 5 -44 12 -11 18 -20 14 -20 -5 0 -3 -6 3 -14 10 -12 5
-13 -31 -5 -23 6 -49 15 -56 22 -11 9 -18 6 -34 -13 -18 -22 -20 -23 -18 -5 4
32 1 45 -11 45 -5 0 -8 -4 -4 -9 3 -5 1 -12 -5 -16 -5 -3 -10 -1 -10 4 0 19
-20 12 -21 -6 0 -15 -2 -15 -10 3 -9 17 -20 21 -65 22 -46 0 -54 -2 -54 -18 0
-13 -6 -17 -22 -14 -21 4 -21 4 -3 -4 11 -5 72 -19 135 -31 151 -29 142 -25
128 -56 -9 -20 -9 -31 -1 -45 11 -16 8 -17 -25 -13 -20 3 -55 15 -77 27 -22
13 -53 26 -70 29 -16 4 -41 10 -54 13 -16 5 -22 3 -18 -3 4 -6 23 -14 44 -18
20 -4 58 -18 85 -31 26 -13 54 -24 62 -24 9 0 20 -9 26 -19 13 -25 13 -41 0
-21 -6 10 -10 11 -10 3 0 -18 98 -118 107 -110 4 4 7 27 8 50 0 23 5 51 11 62
18 32 24 93 11 99 -7 2 -4 5 6 5 9 1 17 9 17 19 0 9 9 23 20 30 18 11 20 10
20 -8 0 -11 3 -20 6 -20 9 0 59 52 72 75 9 16 11 9 8 -38 -4 -51 -2 -56 10
-40 12 16 13 10 9 -47 -5 -68 -24 -98 -66 -101 -37 -3 -69 -18 -69 -32 0 -6
-8 -19 -17 -30 -19 -22 -20 -22 32 -1 8 3 15 2 15 -4 0 -14 -26 -33 -33 -25
-4 3 -7 1 -7 -5 0 -7 -8 -12 -17 -13 -12 -1 -10 -4 7 -9 14 -4 20 -8 13 -9 -7
-1 -10 -8 -7 -16 4 -11 13 -13 28 -9 19 6 19 5 7 -10 -13 -15 -7 -24 55 -87
38 -39 86 -79 107 -90 24 -13 42 -31 49 -50 5 -16 11 -29 11 -30 1 0 58 -4
127 -8 70 -5 140 -15 160 -23 19 -9 72 -49 118 -89 68 -60 88 -85 108 -134 31
-71 39 -105 28 -105 -14 1 -54 37 -54 48 0 6 -23 16 -51 23 -28 7 -61 22 -73
34 -12 11 -53 35 -90 53 -66 32 -67 32 -49 7 10 -13 26 -27 36 -30 18 -7 23
-40 7 -50 -18 -11 -11 -41 26 -115 19 -40 33 -74 30 -77 -11 -12 17 -44 72
-85 68 -50 74 -58 59 -76 -8 -11 -26 -13 -68 -9 -67 8 -89 15 -89 32 0 13
-115 119 -162 149 -16 10 -28 27 -28 37 0 24 -39 46 -50 29 -6 -9 -15 1 -30
31 -12 24 -35 54 -51 67 -17 14 -29 33 -29 47 0 12 -7 28 -15 35 -8 7 -15 18
-15 26 0 7 -6 17 -13 21 -7 4 -19 28 -26 53 -13 44 -13 44 -27 20 l-13 -25 -1
24 c0 16 -4 21 -15 17 -8 -3 -15 -2 -15 3 0 15 -30 7 -31 -8 0 -9 -4 -6 -10 9
-13 32 16 99 49 111 36 14 85 11 110 -7 13 -9 26 -14 29 -11 12 13 -11 27 -72
45 -52 16 -73 18 -117 10 -103 -19 -249 -115 -264 -175 -10 -39 0 -57 51 -82
39 -20 45 -27 29 -29 -31 -4 -76 26 -115 77 -19 24 -44 48 -57 52 -21 8 -22 7
-12 -14 l11 -22 -18 21 c-10 12 -34 30 -53 40 -19 10 -51 34 -71 52 -36 33
-37 34 -18 53 10 10 24 19 29 19 21 0 9 17 -23 32 -30 15 -36 14 -70 -2 -35
-17 -36 -17 -42 1 -4 10 -11 19 -16 19 -12 0 -12 -17 1 -25 15 -9 -11 -43 -39
-50 -23 -6 -81 -59 -81 -75 0 -13 -33 -21 -40 -10 -5 7 -11 6 -20 -5 -7 -8
-19 -15 -26 -15 -11 0 -11 -5 -2 -25 9 -20 9 -28 -1 -38 -10 -9 -12 -9 -9 3 2
11 -4 14 -24 12 -18 -2 -28 1 -28 10 0 10 -3 9 -10 -2 -6 -9 -10 -166 -10
-392 l0 -378 1745 0 1745 0 -4 68 c-6 83 -5 80 -15 64 -6 -10 -13 -4 -25 22
-13 27 -14 40 -5 59 9 20 6 32 -14 73 -14 27 -33 66 -42 86 -9 21 -20 36 -23
35 -4 -1 -18 6 -30 15 -17 11 -24 27 -25 51 0 20 -5 34 -9 31 -4 -3 -8 -1 -8
4 0 6 -11 20 -24 33 -14 14 -21 29 -18 38 3 9 -18 -5 -48 -32 -30 -26 -58 -47
-61 -47 -17 0 -195 -237 -212 -282 -3 -10 -13 -18 -22 -18 -13 0 -16 10 -14
50 2 28 -3 56 -9 62 -9 9 -12 7 -12 -8 0 -12 -9 -29 -20 -39 -13 -11 -20 -31
-20 -53 0 -34 0 -34 24 -19 13 9 26 13 30 10 13 -14 4 -33 -23 -49 -25 -15
-29 -22 -24 -51 7 -39 -3 -44 -17 -7 -9 22 -14 25 -40 19 l-30 -7 6 54 c6 59
-14 123 -84 267 -40 81 -165 225 -212 243 -41 16 -153 19 -161 6 -5 -7 -11 -9
-15 -5 -17 17 19 30 88 33 40 1 76 3 80 3 3 1 25 19 48 41 23 22 47 39 53 37
7 -1 11 6 9 16 -2 9 2 17 7 17 5 0 22 5 38 11 l28 12 -25 7 c-22 7 -20 8 14 9
l39 1 -25 20 c-14 10 -53 24 -86 29 -39 6 -74 19 -95 35 -19 14 -39 26 -45 26
-7 0 -12 5 -12 10 0 6 -6 10 -14 10 -13 0 -128 149 -134 174 -2 7 -14 18 -27
24 -23 11 -65 85 -65 116 0 8 -4 18 -10 21 -5 3 -10 16 -10 28 0 13 -7 32 -15
44 -9 12 -15 26 -13 30 4 19 -16 109 -26 115 -7 5 -5 8 5 8 23 0 32 28 11 33
-15 4 -15 5 1 6 17 1 17 2 2 18 -13 13 -16 29 -13 70 3 29 1 54 -3 55 -4 2 1
35 11 73 10 39 21 100 25 138 4 37 11 67 16 67 5 0 9 18 9 40 0 22 4 40 9 40
5 0 7 -10 4 -22 -2 -13 5 -3 16 21 12 24 19 46 16 49 -3 3 -5 0 -5 -6 0 -7 -5
-12 -12 -12 -6 0 -4 8 6 19 10 11 15 25 10 32 -5 9 -2 10 9 6 12 -4 17 -1 17
11 0 15 2 15 10 2 7 -10 8 0 4 33 -5 32 -3 47 5 47 6 0 11 10 11 22 0 28 22
88 32 88 4 0 15 17 24 38 10 20 29 55 44 77 14 22 31 53 38 69 7 16 15 26 19
23 14 -14 65 31 86 75 24 52 41 63 31 21 -6 -25 -5 -26 8 -13 18 19 40 114 31
136 -4 12 -3 15 5 10 7 -4 12 -3 12 3 0 5 -8 15 -17 20 -10 6 -13 11 -8 11 6
0 11 11 12 25 4 46 6 55 15 55 5 0 6 5 3 10 -7 11 -33 -13 -62 -57 -21 -31
-54 -29 -87 6 -16 16 -40 32 -54 36 l-26 6 24 12 c12 7 29 22 37 34 14 21 13
21 -62 28 -43 4 -100 4 -129 1 -28 -4 -81 -11 -119 -15 -37 -5 -74 -14 -82
-21 -10 -9 -15 -9 -15 -1 0 6 -8 11 -17 11 -10 0 -29 9 -43 20 -14 11 -30 20
-37 20 -7 0 -38 15 -70 34 -32 18 -83 39 -113 46 -30 7 -74 18 -97 25 -47 13
-53 11 -53 -18 0 -11 -5 -17 -12 -14 -7 2 -12 12 -11 21 0 11 -4 15 -13 12 -8
-3 -14 1 -14 9 0 8 3 15 8 15 4 0 12 10 17 23 7 16 17 21 39 20 45 -4 66 29
64 102 0 33 -5 70 -9 82 -17 46 16 71 59 45 12 -8 67 -18 125 -23 56 -4 111
-10 122 -12 35 -9 40 -9 45 -7 3 1 19 3 35 6 76 10 259 3 267 -10 8 -12 128
-16 128 -3 0 4 7 7 15 7 28 0 39 -102 15 -135 -4 -5 -11 -35 -14 -66 -6 -48
-4 -62 16 -95 12 -21 25 -41 29 -44 3 -3 6 -14 6 -25 -1 -57 4 -109 11 -100 4
6 14 10 22 10 10 0 17 13 20 40 4 27 10 39 19 37 9 -2 12 4 8 18 -6 23 3 26
23 8 12 -11 12 -10 0 6 -15 19 -21 136 -7 136 5 0 5 5 1 11 -3 6 -1 15 6 19
16 10 21 91 7 108 -6 7 -6 12 -1 11 21 -4 28 2 14 11 -10 6 -11 10 -2 10 6 0
12 7 12 15 0 8 4 15 9 15 5 0 9 11 9 25 0 13 -5 22 -10 19 -5 -3 -7 11 -5 31
4 32 1 38 -22 46 -55 20 -58 22 -39 26 13 3 15 10 7 36 -11 40 -11 46 2 27 7
-11 8 -6 5 20 -3 19 -8 65 -11 103 -7 69 -22 94 -20 32 1 -19 -2 -35 -7 -35
-4 0 -8 16 -8 35 0 35 -18 85 -31 85 -11 0 -22 -32 -21 -60 0 -17 -1 -19 -4
-7 -3 10 -16 29 -29 43 -21 23 -23 23 -18 5 6 -25 -22 -30 -31 -5 -9 24 -7 31
4 14 8 -13 10 -13 10 1 0 9 -7 22 -15 29 -8 7 -15 24 -15 39 -1 31 -24 66 -39
56 -7 -4 -11 5 -11 22 0 22 -2 25 -10 13 -8 -12 -10 -11 -10 8 l0 22 -350 0
c-218 0 -350 -4 -350 -10 0 -5 -13 -22 -28 -38 -23 -24 -33 -27 -47 -19 -15 8
-22 5 -37 -13 -10 -12 -18 -18 -18 -12 0 13 71 72 87 72 6 0 14 4 17 8 3 5
-19 10 -50 11 -48 1 -56 -1 -65 -21 -5 -13 -16 -34 -24 -48 -8 -14 -15 -34
-15 -45 0 -11 -14 -37 -31 -58 -41 -50 -25 -47 29 6 l45 42 -7 -30 c-4 -16
-16 -42 -26 -57 -11 -15 -20 -38 -20 -50 0 -13 -6 -33 -14 -44 -8 -11 -18 -40
-21 -65 -8 -52 -13 -74 -15 -74 -1 0 -4 -33 -6 -74 -2 -49 2 -86 11 -108 9
-21 11 -41 7 -51 -10 -21 -5 -87 8 -112 6 -10 10 -27 10 -37 0 -10 8 -27 17
-38 15 -19 15 -19 9 8 l-7 29 24 -18 c20 -15 23 -24 17 -50 -4 -17 -3 -39 2
-48 5 -9 7 -24 5 -34 -3 -15 -27 28 -69 128 -26 62 -32 68 -62 74 -28 5 -532
56 -554 56 -5 0 -6 -18 -2 -42 12 -61 4 -59 -14 5 -19 66 -20 75 -4 59 22 -22
48 -14 48 13 0 30 -1 29 39 9 17 -8 29 -20 26 -25 -4 -5 -1 -9 5 -9 7 0 10 6
7 14 -8 20 14 26 31 9 8 -7 18 -11 23 -8 5 4 6 0 3 -8 -3 -10 5 -16 27 -21 51
-10 56 -8 63 29 6 29 11 34 31 33 16 -2 25 -9 25 -20 0 -9 4 -20 10 -23 6 -4
7 1 3 12 -6 16 -5 16 10 4 9 -7 17 -9 17 -3 0 5 -7 15 -15 22 -15 13 -11 35 6
25 5 -4 9 -2 9 4 0 5 -7 14 -15 19 -9 4 -16 18 -15 30 0 12 0 31 1 42 0 21 19
29 19 8 0 -7 3 -24 7 -37 5 -19 3 -22 -8 -16 -11 6 -12 5 -2 -5 11 -11 17 -10
35 7 16 15 31 20 49 16 16 -3 30 1 38 11 12 15 15 13 28 -11 11 -21 11 -28 1
-34 -16 -10 0 -60 22 -67 12 -4 13 -3 2 10 -10 13 -10 19 2 31 10 10 12 17 4
25 -7 7 -4 16 11 28 11 10 21 24 21 31 0 7 5 13 11 13 16 0 7 92 -10 98 -9 3
-11 0 -6 -8 5 -8 3 -11 -6 -8 -8 3 -16 13 -17 22 -3 14 1 17 18 11 20 -6 21
-5 10 14 -6 12 -8 26 -5 31 11 18 -14 11 -32 -9 -23 -24 -66 -24 -81 0 -10 15
-9 19 3 19 8 0 15 -6 15 -12 0 -8 7 -5 15 6 8 11 15 16 15 11 0 -5 7 1 16 13
8 12 13 31 9 42 -3 10 1 33 10 51 12 22 14 34 6 42 -19 19 -49 15 -55 -7 -7
-28 1 -32 24 -11 25 23 36 14 19 -17 -15 -29 -28 -38 -56 -38 -25 0 -26 4 -14
35 5 11 5 25 0 31 -11 13 -1 44 13 44 5 0 6 5 3 10 -4 6 -10 8 -15 5 -15 -9
-23 17 -9 26 12 8 12 11 -1 19 -12 8 -12 10 -1 10 11 0 10 5 -4 20 -14 16 -15
20 -4 20 8 0 16 10 16 22 1 13 10 28 19 35 17 12 17 13 1 13 -10 0 -20 -7 -23
-15 -8 -19 -31 -19 -68 0 -37 19 -49 19 -69 -3 -11 -12 -14 -26 -10 -42 6 -21
4 -23 -9 -13 -11 10 -17 10 -26 1 -9 -9 -12 -8 -12 5 0 9 7 17 15 17 8 0 15 9
15 19 0 11 6 21 13 24 6 2 -15 4 -48 4 -43 0 -63 -4 -72 -16 -12 -15 -13 -15
-7 0 4 14 -6 17 -74 18 -76 2 -81 0 -101 -25 -22 -28 -28 -25 -12 4 8 15 0 17
-77 20 -48 1 -82 -1 -76 -5 6 -5 8 -17 4 -28 -6 -17 -7 -16 -14 8 -5 23 -12
27 -40 27 -18 0 -36 -3 -39 -7z m366 -23 c-4 -15 0 -20 15 -20 26 0 37 -16 16
-24 -26 -10 -32 -7 -43 25 -14 40 -14 39 3 39 9 0 12 -7 9 -20z m-332 -35 c1
6 1 13 0 17 0 4 6 5 14 2 11 -5 8 -11 -12 -30 -31 -28 -44 -21 -36 20 l6 29
13 -24 c7 -13 14 -19 15 -14z m279 31 c0 -3 -4 -8 -10 -11 -5 -3 -10 -1 -10 4
0 6 5 11 10 11 6 0 10 -2 10 -4z m299 -11 c16 -5 21 -4 17 4 -11 16 29 14 43
-3 10 -11 8 -24 -8 -60 -12 -24 -18 -51 -15 -59 3 -8 1 -17 -4 -21 -5 -3 -8 8
-7 25 1 20 -2 28 -10 25 -8 -3 -15 8 -19 27 -5 23 -9 28 -15 18 -5 -8 -11 -9
-15 -3 -3 6 -2 13 4 17 15 9 12 25 -5 25 -8 0 -15 5 -15 11 0 6 6 9 13 6 6 -2
23 -8 36 -12z m-982 -51 c-3 -3 -12 -4 -19 -1 -8 3 -5 6 6 6 11 1 17 -2 13 -5z
m205 -11 c18 -16 18 -16 12 0 -7 20 -4 20 30 7 26 -9 36 -30 15 -30 -6 0 -24
-11 -40 -24 -39 -33 -69 -25 -69 18 0 49 18 60 52 29z m-201 -31 c-7 -2 -23 5
-35 17 l-21 22 35 -17 c20 -10 29 -19 21 -22z m628 -11 c6 -10 4 -20 -4 -28
-10 -9 -17 -7 -34 11 -11 12 -21 25 -21 28 0 13 51 4 59 -11z m341 9 c0 -5 -2
-10 -4 -10 -3 0 -8 5 -11 10 -3 6 -1 10 4 10 6 0 11 -4 11 -10z m-700 -7 c-1
-19 -19 -35 -30 -28 -10 6 -9 11 5 22 22 15 25 16 25 6z m480 -3 c0 -5 -4 -10
-10 -10 -5 0 -10 5 -10 10 0 6 5 10 10 10 6 0 10 -4 10 -10z m-60 -9 c0 -6 -4
-13 -10 -16 -5 -3 -10 1 -10 9 0 9 5 16 10 16 6 0 10 -4 10 -9z m-160 -17 c0
-14 -3 -14 -15 -4 -8 7 -15 14 -15 16 0 2 7 4 15 4 8 0 15 -7 15 -16z m257 0
c-3 -3 -12 -4 -19 -1 -8 3 -5 6 6 6 11 1 17 -2 13 -5z m148 -12 c-3 -3 -11 0
-18 7 -9 10 -8 11 6 5 10 -3 15 -9 12 -12z m120 -1 c-3 -6 -14 -10 -23 -10
-15 1 -15 2 1 6 9 2 17 9 17 15 0 6 3 9 6 5 3 -3 3 -10 -1 -16z m-555 -1 c0
-5 -5 -10 -11 -10 -5 0 -7 5 -4 10 3 6 8 10 11 10 2 0 4 -4 4 -10z m434 -39
c-11 -9 -23 -23 -26 -31 -3 -10 -6 -7 -11 9 -3 13 -3 21 0 18 2 -3 14 4 25 15
11 11 23 17 26 13 4 -4 -2 -14 -14 -24z m-324 -22 c0 -11 -4 -17 -10 -14 -5 3
-10 13 -10 21 0 8 5 14 10 14 6 0 10 -9 10 -21z m455 -19 c-3 -5 -1 -19 5 -30
14 -26 0 -26 -31 1 -23 20 -23 21 -5 35 20 14 41 10 31 -6z m-1135 -10 c14 -4
19 -8 13 -9 -19 -1 -17 -95 2 -111 28 -23 45 -4 45 50 0 27 -4 50 -10 50 -5 0
-10 5 -10 10 0 13 37 13 45 1 3 -5 0 -13 -6 -17 -6 -4 -9 -19 -5 -36 13 -68
-18 -101 -71 -76 -24 11 -29 21 -34 63 -3 28 -9 58 -13 68 -9 19 2 21 44 7z
m810 0 c0 -5 -5 -10 -11 -10 -5 0 -7 5 -4 10 3 6 8 10 11 10 2 0 4 -4 4 -10z
m145 0 c3 -5 -1 -10 -9 -10 -9 0 -16 5 -16 10 0 6 4 10 9 10 6 0 13 -4 16 -10z
m-55 -9 c0 -5 -7 -11 -15 -15 -15 -5 -20 5 -8 17 9 10 23 9 23 -2z m118 -3
c-4 -8 32 -48 44 -48 4 0 8 10 8 23 0 15 3 18 9 9 4 -7 12 -12 17 -11 5 1 20
-3 34 -9 18 -8 20 -11 7 -11 -9 -1 -25 -6 -35 -12 -20 -12 -97 15 -87 31 4 6
-1 13 -9 16 -9 3 -13 10 -10 16 6 10 28 7 22 -4z m-815 -8 c24 0 27 -4 27 -32
l-1 -33 -16 30 c-20 38 -27 22 -21 -54 4 -56 4 -57 -22 -53 -25 4 -26 5 -22
68 3 44 1 64 -7 64 -6 0 -14 -7 -17 -15 -10 -24 -24 -17 -24 11 0 25 2 26 38
20 20 -3 49 -6 65 -6z m482 -10 c-2 -4 0 -21 6 -37 6 -19 6 -38 0 -55 -5 -14
-6 -31 -1 -38 5 -9 4 -20 -2 -27 -7 -8 -7 -13 0 -13 5 0 10 -28 10 -65 0 -36
-4 -65 -9 -65 -5 0 -9 -16 -9 -36 0 -22 -4 -33 -11 -29 -7 5 -10 65 -8 173 1
176 5 215 20 206 5 -3 7 -9 4 -14z m306 0 c5 0 9 -4 9 -9 0 -12 -38 -2 -47 12
-4 7 0 8 11 4 10 -4 22 -7 27 -7z m-623 -13 c40 -7 73 -16 73 -22 1 -5 5 -18
10 -28 12 -22 32 -11 26 14 -4 15 0 19 19 19 30 0 30 -4 -1 -44 -27 -36 -32
-65 -13 -84 9 -9 4 -12 -25 -12 -38 0 -45 8 -25 28 9 9 6 23 -12 62 -24 52
-40 64 -40 30 0 -11 -4 -20 -10 -20 -5 0 -10 6 -10 14 0 7 -7 19 -15 26 -13
11 -15 5 -15 -48 0 -39 4 -62 13 -65 6 -3 -4 -6 -23 -6 l-36 -1 4 65 c4 67 -1
78 -24 48 -12 -16 -13 -15 -14 10 0 31 5 32 118 14z m442 9 c0 -2 -7 -9 -15
-16 -13 -11 -14 -10 -9 4 5 14 24 23 24 12z m50 -41 c0 -5 -5 -3 -10 5 -5 8
-10 20 -10 25 0 6 5 3 10 -5 5 -8 10 -19 10 -25z m120 16 c0 -13 -29 -35 -37
-27 -3 3 -1 6 5 6 6 0 9 7 6 15 -4 9 0 15 10 15 9 0 16 -4 16 -9z m-80 -11 c0
-5 -7 -7 -15 -4 -8 4 -15 8 -15 10 0 2 7 4 15 4 8 0 15 -4 15 -10z m-65 -70
c-11 -5 -15 -9 -10 -9 6 -1 27 -17 48 -36 35 -32 36 -35 16 -35 -18 0 -20 -3
-11 -12 14 -14 16 -28 4 -28 -5 0 -14 12 -20 26 -7 14 -8 23 -3 19 5 -3 12 -1
16 5 7 11 2 13 -62 30 -24 6 -43 14 -43 19 0 11 41 30 65 30 l20 0 -20 -9z
m240 -30 c3 -4 -2 -10 -10 -14 -17 -6 -45 2 -45 14 0 10 49 10 55 0z m110 0
c3 -5 0 -7 -8 -4 -8 3 -18 1 -22 -5 -3 -6 -16 -11 -28 -11 -22 -1 -22 -1 -3
-15 17 -13 17 -15 3 -15 -9 0 -21 9 -26 19 -9 17 -6 20 27 29 50 13 50 13 57
2z m-275 -20 c0 -5 -2 -10 -4 -10 -3 0 -8 5 -11 10 -3 6 -1 10 4 10 6 0 11 -4
11 -10z m-103 -20 c3 -11 10 -20 15 -20 5 0 7 -4 4 -9 -3 -5 1 -11 9 -15 13
-4 12 -10 -3 -38 -9 -18 -23 -37 -30 -41 -10 -7 -10 -12 -1 -23 6 -8 9 -18 5
-22 -4 -4 -16 3 -27 16 -10 13 -23 21 -29 17 -6 -4 -10 4 -10 19 0 14 5 28 10
31 6 3 10 11 10 16 0 6 -5 7 -11 3 -9 -5 -10 4 -4 32 9 50 12 54 37 54 11 0
22 -8 25 -20z m414 -13 c-16 -16 -26 0 -10 19 9 11 15 12 17 4 2 -6 -1 -17 -7
-23z m-127 7 c9 -24 2 -26 -12 -4 -7 11 -8 20 -3 20 5 0 12 -7 15 -16z m171
-4 c3 -5 1 -10 -4 -10 -6 0 -11 5 -11 10 0 6 2 10 4 10 3 0 8 -4 11 -10z
m-707 -12 c7 -7 12 -18 12 -25 0 -8 -7 -6 -20 7 -11 11 -20 22 -20 25 0 9 16
5 28 -7z m-455 -69 c16 -39 26 -74 23 -76 -3 -3 -16 -3 -30 1 -18 4 -23 11
-19 26 4 16 0 20 -21 20 -27 0 -36 -15 -13 -23 20 -7 0 -19 -21 -13 -19 6 -19
8 7 71 14 36 31 65 36 65 6 0 23 -32 38 -71z m1027 67 c0 -3 -4 -8 -10 -11 -5
-3 -10 -1 -10 4 0 6 5 11 10 11 6 0 10 -2 10 -4z m-872 -28 c14 -12 16 -40 3
-53 -12 -13 6 -58 19 -50 5 3 10 0 10 -8 0 -20 -25 -28 -43 -14 -8 7 -17 24
-21 40 -10 41 -30 34 -23 -9 5 -29 3 -35 -9 -30 -9 3 -21 6 -27 6 -8 0 -12 24
-12 71 l0 71 45 -7 c25 -4 51 -12 58 -17z m662 2 c0 -5 -5 -10 -11 -10 -5 0
-7 5 -4 10 3 6 8 10 11 10 2 0 4 -4 4 -10z m87 4 c-3 -3 -12 -4 -19 -1 -8 3
-5 6 6 6 11 1 17 -2 13 -5z m-642 -13 c3 -5 1 -12 -5 -16 -5 -3 -10 -16 -10
-27 0 -21 0 -21 20 -3 12 10 18 25 16 32 -6 15 22 17 44 3 13 -8 13 -10 -1
-10 -34 0 -42 -26 -20 -69 26 -50 26 -51 -4 -51 -16 0 -23 5 -19 13 6 16 -22
55 -32 44 -5 -4 -2 -17 5 -28 16 -27 13 -29 -29 -20 -22 4 -30 10 -22 14 16
10 16 99 0 115 -9 9 -5 12 19 12 18 0 34 -4 38 -9z m795 -6 c0 -8 -6 -15 -14
-15 -7 0 -19 7 -26 15 -11 13 -8 15 14 15 16 0 26 -5 26 -15z m-664 -24 c16
-27 19 -28 31 -13 11 15 14 15 23 2 9 -13 11 -13 20 0 14 21 14 -45 0 -71 -13
-24 -32 -25 -28 -2 2 11 -5 19 -17 21 -25 5 -62 42 -43 42 8 1 7 5 -4 14 -10
7 -18 18 -18 25 0 21 19 11 36 -18z m418 10 c3 -4 3 -11 0 -14 -8 -8 -34 3
-34 14 0 11 27 12 34 0z m76 -55 c0 -3 -4 -8 -10 -11 -5 -3 -10 -1 -10 4 0 6
5 11 10 11 6 0 10 -2 10 -4z m-107 -31 c4 -8 2 -17 -3 -20 -6 -4 -10 3 -10 14
0 25 6 27 13 6z m468 -118 c-10 -9 -11 -8 -5 6 3 10 9 15 12 12 3 -3 0 -11 -7
-18z m-767 -32 c3 -9 0 -15 -10 -15 -8 0 -13 -4 -10 -9 11 -17 -20 -28 -79
-30 -67 -1 -101 12 -75 29 8 5 22 7 30 4 49 -18 68 -16 85 10 19 29 50 34 59
11z m-444 -26 c0 -10 -7 -11 -37 -3 -13 4 -23 12 -23 20 0 10 6 11 30 3 17 -6
30 -15 30 -20z m904 -1 c20 -29 10 -39 -12 -12 -9 12 -24 24 -32 27 -10 4 -8
6 7 6 12 1 29 -9 37 -21z m209 -15 c4 -7 18 -14 30 -14 16 -1 17 -3 5 -6 -9
-2 -18 -13 -20 -24 -3 -19 -4 -19 -23 -4 -11 9 -13 13 -5 9 12 -6 13 -4 3 7
-10 10 -16 10 -25 1 -15 -15 -38 -16 -38 -2 0 6 7 10 15 10 8 0 15 5 15 11 0
7 -12 9 -32 7 l-32 -5 23 18 c25 21 70 16 84 -8z m-527 -26 c2 -7 -2 -32 -11
-56 -8 -24 -15 -45 -15 -47 0 -2 16 -4 35 -4 19 0 35 -4 35 -9 0 -15 -29 -21
-55 -11 -21 8 -25 7 -25 -10 0 -11 -4 -20 -9 -20 -5 0 -11 -9 -14 -21 -3 -12
-10 -18 -17 -14 -14 9 -9 73 7 87 7 5 15 26 19 47 3 20 8 44 11 54 5 20 31 23
39 4z m728 -252 c8 -6 19 -31 26 -55 7 -25 16 -50 21 -56 6 -8 4 -14 -5 -17
-18 -7 -28 6 -20 26 3 8 -2 22 -11 30 -24 24 -45 140 -43 237 1 84 1 83 9 -35
6 -86 12 -123 23 -130z m-320 210 c-4 -8 -8 -15 -10 -15 -2 0 -4 7 -4 15 0 8
4 15 10 15 5 0 7 -7 4 -15z m50 -4 c3 -5 -1 -14 -8 -20 -12 -10 -14 -9 -11 6
2 10 4 19 4 21 2 5 10 2 15 -7z m56 -1 c0 -5 -4 -10 -10 -10 -5 0 -10 5 -10
10 0 6 5 10 10 10 6 0 10 -4 10 -10z m239 -84 c11 -44 7 -58 -14 -49 -11 3
-15 21 -15 56 0 57 12 54 29 -7z m-1359 -76 c0 -11 -7 -20 -15 -20 -13 0 -13
3 -3 20 7 11 14 20 15 20 2 0 3 -9 3 -20z m1840 -60 c4 0 6 -18 3 -40 -5 -33
-2 -45 16 -61 11 -11 22 -25 23 -32 0 -7 2 -16 3 -22 2 -5 3 -15 4 -21 2 -17
41 -54 57 -54 9 0 14 6 11 13 -4 10 10 12 58 9 35 -2 80 1 100 8 46 15 99 61
115 99 11 27 37 47 47 37 3 -2 -18 -52 -47 -111 -61 -127 -149 -229 -188 -219
-16 5 -22 14 -22 33 0 51 -15 60 -105 67 -27 2 -59 4 -70 5 -11 0 -30 -2 -42
-6 -17 -5 -30 1 -61 31 -22 22 -48 44 -58 51 -18 11 -18 12 2 12 24 1 94 96
94 128 0 39 22 85 37 79 8 -3 18 -6 23 -6z m450 -35 c0 -2 -7 -5 -15 -9 -9 -3
-15 0 -15 9 0 9 6 12 15 9 8 -4 15 -7 15 -9z m-870 -100 c11 -13 8 -15 -21
-14 -19 1 -26 3 -16 6 9 2 17 9 17 14 0 13 6 11 20 -6z m-833 -22 c-20 -2 -52
-2 -70 0 -17 2 0 4 38 4 39 0 53 -2 32 -4z m945 -21 c44 -3 57 -7 43 -13 -19
-7 -19 -8 3 -8 12 -1 22 -5 22 -9 0 -5 10 -14 23 -20 18 -9 12 -11 -40 -11
-34 -1 -64 -5 -67 -10 -3 -5 -17 -8 -31 -8 -30 0 -35 33 -7 45 26 11 26 32 0
31 -13 0 -17 -3 -10 -6 16 -6 5 -23 -15 -23 -9 0 -13 3 -10 6 4 4 -3 16 -16
27 l-22 19 24 -7 c18 -6 22 -4 15 6 -7 12 -5 12 9 1 9 -8 44 -16 79 -20z
m-935 -8 c-3 -3 -12 -4 -19 -1 -8 3 -5 6 6 6 11 1 17 -2 13 -5z m1253 -254
c-8 -5 -19 -10 -25 -10 -5 0 -3 5 5 10 8 5 20 10 25 10 6 0 3 -5 -5 -10z
m-903 -535 c0 -8 -9 -17 -19 -21 -20 -6 -24 -19 -8 -29 15 -9 12 -22 -6 -29
-14 -5 -15 -4 -5 8 14 17 -2 31 -21 20 -8 -5 -8 -1 2 12 43 57 57 67 57 39z
m-37 -99 c8 -3 2 -4 -14 0 -27 5 -28 4 -16 -13 12 -15 12 -16 0 -6 -7 7 -14
22 -15 33 -1 17 0 18 14 6 9 -7 23 -16 31 -20z m270 -67 c0 -6 -4 -8 -9 -4 -6
3 -14 -3 -20 -12 -14 -24 -14 -7 0 18 10 19 29 18 29 -2z m-45 -59 c3 -5 -1
-10 -9 -10 -9 0 -16 5 -16 10 0 6 4 10 9 10 6 0 13 -4 16 -10z m43 -29 c3 -8
-1 -12 -9 -9 -7 2 -15 10 -17 17 -3 8 1 12 9 9 7 -2 15 -10 17 -17z m32 -11
c0 -5 -4 -10 -10 -10 -5 0 -10 5 -10 10 0 6 5 10 10 10 6 0 10 -4 10 -10z
m-67 -36 c9 -4 17 -11 17 -16 0 -5 8 -7 19 -3 14 4 20 0 23 -19 5 -23 2 -24
-23 -19 -16 3 -36 2 -46 -2 -10 -5 -26 -9 -35 -10 -10 -2 -22 -3 -28 -4 -5 0
-10 -10 -10 -22 0 -11 -4 -18 -9 -14 -15 9 9 67 25 61 9 -3 11 0 7 11 -4 11
-2 14 5 9 8 -5 12 2 12 19 0 18 4 25 13 21 6 -3 20 -9 30 -12z m-311 -36 c-7
-7 -12 -8 -12 -2 0 14 12 26 19 19 2 -3 -1 -11 -7 -17z m278 -79 c0 -11 -27
-12 -34 -1 -2 4 4 9 15 9 10 1 19 -2 19 -8z m63 2 c17 10 18 8 13 -23 -7 -31
-6 -32 9 -14 14 18 15 18 15 2 0 -10 5 -15 13 -11 6 4 1 -3 -12 -15 -13 -11
-31 -18 -38 -15 -8 3 -21 5 -29 5 -9 0 -12 5 -9 10 4 6 2 17 -4 24 -14 17 -3
52 12 37 7 -7 16 -7 30 0z m-291 -63 c-7 -7 -12 -8 -12 -2 0 14 12 26 19 19 2
-3 -1 -11 -7 -17z m479 -8 c5 0 9 -5 9 -11 0 -8 -5 -8 -15 1 -8 7 -14 20 -14
29 1 13 2 13 6 -1 2 -10 9 -18 14 -18z m376 -82 c-3 -8 -6 -5 -6 6 -1 11 2 17
5 13 3 -3 4 -12 1 -19z m-96 -19 c-5 -13 -10 -19 -10 -12 -1 15 10 45 15 40 3
-2 0 -15 -5 -28z m55 5 c-4 -9 -9 -15 -11 -12 -3 3 -3 13 1 22 4 9 9 15 11 12
3 -3 3 -13 -1 -22z m-926 -535 c0 -5 -4 -9 -10 -9 -5 0 -10 7 -10 16 0 8 5 12
10 9 6 -3 10 -10 10 -16z m-953 -31 c-3 -8 -6 -5 -6 6 -1 11 2 17 5 13 3 -3 4
-12 1 -19z m561 -138 c13 -46 23 -64 33 -61 8 2 48 5 89 7 41 3 80 6 87 9 7 2
15 0 18 -5 4 -6 3 -10 -2 -10 -4 0 -48 -7 -98 -15 -117 -19 -112 -20 -129 13
-17 33 -46 189 -37 198 3 3 9 -12 13 -33 4 -21 16 -67 26 -103z m1898 49 c40
-24 54 -47 54 -86 0 -16 4 -33 10 -39 6 -6 6 -15 0 -24 -7 -10 -10 -11 -10 -2
0 6 -5 12 -11 12 -8 0 -9 -17 -5 -54 7 -50 5 -56 -20 -79 -14 -14 -34 -24 -43
-23 -22 4 -43 -26 -112 -161 -34 -65 -68 -126 -76 -135 -22 -24 -69 -24 -76 1
-2 10 -16 20 -31 23 -26 5 -26 5 -10 -13 14 -15 14 -19 3 -20 -39 -3 -78 5
-119 24 l-45 20 35 7 c32 7 33 8 13 15 -13 4 -23 12 -23 18 0 6 -24 7 -72 2
-40 -5 -91 -9 -113 -10 -22 -1 -53 -7 -68 -14 -45 -18 -66 -14 -73 15 -10 38
17 58 115 88 46 15 89 30 95 33 11 7 -55 26 -243 68 -62 15 -120 33 -128 41
-16 16 -11 44 8 44 17 0 179 -37 312 -72 l118 -30 22 20 c12 11 34 25 49 31
22 8 78 77 78 96 0 3 -12 5 -27 5 -39 0 -61 16 -46 31 9 9 8 15 -3 26 -12 13
-21 12 -65 -2 -27 -9 -61 -14 -75 -11 -17 5 -26 2 -30 -9 -4 -8 -11 -15 -18
-15 -6 0 -28 -9 -49 -20 -20 -11 -55 -20 -77 -20 -37 0 -40 2 -30 19 5 11 23
28 39 37 16 10 37 35 47 56 9 21 23 43 31 49 22 19 230 49 381 56 78 3 144 9
147 12 2 4 27 8 55 9 39 2 61 -3 86 -19z m-1866 -18 c0 -5 14 -14 32 -20 41
-14 30 -25 -13 -13 -31 8 -55 42 -30 42 6 0 11 -4 11 -9z m360 -62 c-32 -13
-157 -24 -148 -14 5 5 36 10 70 12 35 3 65 7 67 9 2 2 11 4 20 3 9 0 5 -5 -9
-10z m405 -260 c23 -25 26 -30 10 -24 -11 4 -31 10 -45 12 -60 10 -70 14 -80
34 -8 15 -8 24 0 34 14 17 73 -11 115 -56z m1103 -10 c-3 -8 -7 -3 -11 10 -4
17 -3 21 5 13 5 -5 8 -16 6 -23z m76 -78 c-2 -3 -19 10 -37 28 l-32 34 37 -29
c20 -15 35 -30 32 -33z"/>
<path d="M1125 3930 c4 -6 11 -8 16 -5 14 9 11 15 -7 15 -8 0 -12 -5 -9 -10z"/>
<path d="M126 3425 c-3 -9 0 -15 9 -15 9 0 12 6 9 15 -4 8 -7 15 -9 15 -2 0
-5 -7 -9 -15z"/>
<path d="M280 3435 c0 -15 6 -25 14 -25 19 0 28 14 20 34 -10 25 -34 19 -34
-9z"/>
<path d="M2495 440 c-3 -5 -1 -10 4 -10 6 0 11 5 11 10 0 6 -2 10 -4 10 -3 0
-8 -4 -11 -10z"/>
<path d="M1315 3991 c-3 -5 -1 -12 5 -16 5 -3 10 1 10 9 0 18 -6 21 -15 7z"/>
<path d="M2550 3990 c8 -5 18 -6 23 -3 4 3 8 -1 6 -8 -3 -23 1 -43 10 -58 8
-12 12 -13 25 -1 14 11 20 10 39 -6 20 -18 21 -18 7 0 -8 10 -15 25 -16 33 -5
29 -34 50 -72 51 -26 1 -33 -1 -22 -8z"/>
<path d="M1246 3855 c4 -8 8 -15 10 -15 2 0 4 7 4 15 0 8 -4 15 -10 15 -5 0
-7 -7 -4 -15z"/>
<path d="M1336 3781 c-4 -7 -5 -15 -2 -18 9 -9 19 4 14 18 -4 11 -6 11 -12 0z"/>
<path d="M2890 3579 c0 -5 21 -9 48 -9 26 0 58 -3 72 -5 21 -5 22 -4 5 3 -30
14 -125 22 -125 11z"/>
<path d="M2860 3549 c0 -5 5 -7 10 -4 6 3 10 8 10 11 0 2 -4 4 -10 4 -5 0 -10
-5 -10 -11z"/>
<path d="M2621 3525 c0 -5 3 -16 8 -24 11 -16 31 -6 31 16 0 12 -3 13 -14 4
-11 -9 -15 -9 -19 1 -3 7 -6 9 -6 3z"/>
<path d="M2855 3520 c3 -5 8 -10 11 -10 2 0 4 5 4 10 0 6 -5 10 -11 10 -5 0
-7 -4 -4 -10z"/>
<path d="M0 3401 c0 -10 7 -22 15 -25 20 -7 32 23 14 35 -21 13 -29 11 -29
-10z"/>
<path d="M1330 3410 c0 -4 7 -13 15 -20 12 -10 15 -9 15 7 0 11 -7 20 -15 20
-8 0 -15 -4 -15 -7z"/>
<path d="M3610 3379 c0 -6 -6 -9 -13 -6 -10 4 -13 -5 -13 -34 0 -21 5 -40 12
-43 20 -8 37 11 32 38 -3 14 -2 27 2 28 5 2 2 9 -6 16 -10 9 -14 9 -14 1z"/>
<path d="M1209 3314 c-21 -10 -25 -19 -22 -39 5 -21 11 -25 39 -25 31 0 34 3
34 29 0 40 -18 53 -51 35z"/>
<path d="M1060 3300 c0 -5 5 -10 10 -10 6 0 10 5 10 10 0 6 -4 10 -10 10 -5 0
-10 -4 -10 -10z"/>
<path d="M910 3290 c0 -5 5 -10 11 -10 5 0 7 5 4 10 -3 6 -8 10 -11 10 -2 0
-4 -4 -4 -10z"/>
<path d="M1310 3280 c0 -5 5 -10 10 -10 6 0 10 5 10 10 0 6 -4 10 -10 10 -5 0
-10 -4 -10 -10z"/>
<path d="M3601 3248 c0 -10 -6 -18 -12 -18 -5 0 -7 -5 -3 -11 10 -16 27 5 21
27 -4 17 -5 17 -6 2z"/>
<path d="M2749 3238 c-1 -2 -3 -26 -4 -55 -1 -36 1 -50 10 -47 7 3 12 18 13
34 1 44 9 50 60 49 65 -2 110 -12 95 -22 -21 -13 -15 -24 17 -29 26 -4 30 -2
30 19 0 20 5 24 28 23 73 -5 57 4 -28 16 -85 11 -218 18 -221 12z"/>
<path d="M3473 3173 c9 -2 17 -9 17 -14 0 -6 5 -7 10 -4 6 3 10 1 10 -5 0 -6
-7 -10 -16 -8 -10 2 -19 -3 -21 -10 -3 -7 1 -11 8 -10 7 2 13 -7 13 -21 0 -17
-9 -30 -29 -41 -32 -18 -51 -76 -22 -64 28 10 28 -16 0 -114 -26 -90 -28 -94
-32 -57 l-3 40 -13 -35 c-6 -19 -20 -37 -29 -38 -15 -3 -17 1 -12 30 6 31 5
31 -5 8 -13 -27 -15 -35 -17 -62 -1 -10 -8 -18 -16 -18 -10 0 -12 11 -8 45 l5
45 -43 0 c-48 0 -52 -22 -4 -30 27 -5 29 -8 26 -43 -2 -23 1 -37 8 -37 15 0
44 -29 36 -37 -3 -3 -72 -1 -153 6 -82 6 -191 14 -243 17 -52 4 -123 9 -157
13 -69 8 -77 2 -37 -24 26 -17 108 -26 494 -55 85 -6 159 -16 164 -20 5 -5 2
-16 -8 -25 -9 -9 -16 -21 -16 -26 0 -5 -7 -9 -15 -9 -21 0 -31 30 -14 40 7 5
10 12 6 16 -4 4 -15 0 -24 -8 -22 -18 -63 -30 -63 -17 0 14 -26 10 -40 -6 -7
-8 -21 -15 -31 -15 -11 0 -19 7 -19 15 0 24 -18 17 -37 -15 -20 -35 -35 -34
-43 1 -4 16 -13 23 -26 22 -10 -1 -22 4 -26 10 -5 8 -8 8 -8 -3 -1 -12 -3 -11
-11 3 -14 24 -26 21 -33 -8 -6 -24 -26 -35 -26 -14 0 6 -9 8 -20 4 -13 -4 -20
-2 -20 6 0 7 -3 9 -6 6 -11 -11 -44 13 -44 32 0 22 -36 35 -44 16 -5 -14 12
-35 29 -35 5 0 39 -25 73 -55 35 -31 76 -62 90 -69 15 -8 47 -35 71 -60 l44
-45 -10 -53 c-12 -58 0 -139 31 -212 11 -25 15 -63 14 -110 -1 -62 2 -76 25
-110 15 -21 27 -47 27 -57 0 -20 31 -21 66 -2 18 10 24 9 42 -12 28 -33 38
-31 46 5 3 17 10 30 16 30 12 0 12 -6 1 -48 -6 -21 -6 -32 0 -32 6 0 8 -4 4
-9 -12 -20 15 -21 35 -1 11 11 22 20 25 20 40 0 57 3 47 7 -10 4 -9 9 4 24 20
22 45 24 62 7 9 -9 12 -8 13 7 1 11 1 23 0 28 0 4 6 7 15 7 11 0 14 -5 10 -16
-8 -20 20 -43 51 -44 12 0 36 -15 54 -32 19 -19 30 -25 26 -15 -8 20 6 23 22
3 7 -8 24 -17 38 -21 18 -4 23 -9 15 -14 -9 -6 -7 -20 9 -59 20 -48 24 -52 56
-52 23 0 33 -4 30 -12 -2 -7 -16 -12 -31 -11 -18 1 -26 -3 -27 -15 0 -13 -3
-12 -11 6 -6 12 -15 22 -20 22 -4 0 -8 5 -8 12 0 6 -7 20 -17 30 -11 13 -12
18 -3 18 10 0 10 3 0 15 -7 8 -26 15 -42 15 -29 0 -30 -1 -11 -18 78 -72 95
-113 61 -149 -25 -26 -21 -29 16 -10 14 8 22 18 18 23 -4 5 3 0 16 -10 26 -23
27 -24 6 -22 -23 2 -29 -20 -8 -28 10 -4 22 1 29 11 14 20 16 20 75 22 l40 1
0 490 c0 444 -4 526 -24 475 -3 -9 -12 -12 -21 -8 -9 3 -13 9 -8 12 13 10 34
61 24 61 -5 0 -7 9 -4 20 3 11 12 20 20 20 8 0 13 7 11 16 -3 18 -78 31 -78
14 0 -6 -5 -10 -11 -10 -5 0 -7 4 -4 10 3 5 -8 9 -27 9 -18 0 -50 6 -70 13
l-36 14 31 14 c17 7 26 15 19 18 -18 6 -15 19 11 43 17 17 18 21 4 16 -14 -5
-16 -2 -11 18 4 15 2 25 -5 25 -12 0 -15 32 -4 43 10 10 33 -13 33 -33 0 -21
58 -39 110 -32 l36 4 3 172 2 173 -33 7 c-26 5 -36 2 -49 -16 -9 -12 -15 -28
-12 -35 3 -7 -2 -13 -11 -13 -9 0 -16 -7 -16 -16 0 -9 -5 -12 -12 -8 -7 4 -5
-2 5 -13 9 -11 14 -23 10 -26 -13 -13 8 -7 34 10 25 16 26 16 45 -7 10 -13 15
-26 10 -29 -14 -10 -9 -79 6 -74 7 3 12 -3 11 -18 0 -13 -3 -18 -6 -11 -2 6
-11 12 -18 12 -8 0 -17 9 -20 21 -5 16 -10 18 -21 8 -8 -6 -14 -18 -14 -25 0
-8 -4 -14 -10 -14 -13 0 -13 6 0 30 8 15 6 17 -10 13 -11 -3 -21 -14 -21 -24
-3 -40 -5 -44 -24 -42 -11 2 -41 4 -68 5 -29 1 -46 6 -44 12 2 6 19 10 37 8
24 -3 30 0 25 10 -6 10 -5 11 6 1 20 -19 29 -16 29 12 0 24 -21 33 -55 25 -5
-1 -21 -4 -34 -6 -13 -1 -28 -7 -34 -13 -15 -15 -30 -14 -21 1 5 7 3 8 -5 4
-7 -5 -10 -14 -7 -21 3 -9 -2 -13 -15 -12 -10 1 -19 7 -19 15 0 7 -11 1 -26
-15 l-26 -28 7 25 c3 14 8 54 11 90 4 36 10 69 15 75 5 5 9 19 9 32 0 21 -5
23 -45 23 -42 0 -44 1 -36 23 5 12 17 24 27 25 15 3 17 1 7 -9 -20 -20 -16
-29 12 -29 18 0 25 5 25 20 0 17 7 20 43 21 l42 1 -40 8 c-44 8 -221 20 -192
13z m500 -110 c-7 -2 -21 -2 -30 0 -10 3 -4 5 12 5 17 0 24 -2 18 -5z m-431
-110 c19 -17 24 -58 8 -68 -5 -3 -10 -21 -10 -40 0 -19 -4 -36 -9 -39 -5 -4
-7 13 -5 36 4 40 3 41 -7 16 -13 -33 -33 -37 -26 -5 3 12 9 43 12 70 8 52 10
54 37 30z m148 -116 c0 -4 -4 -6 -9 -3 -4 3 -13 -6 -19 -20 -10 -21 -15 -23
-33 -13 -17 9 -23 8 -30 -2 -11 -18 8 -39 35 -39 17 0 18 -2 6 -10 -8 -6 -27
-7 -42 -4 -16 3 -28 2 -28 -2 0 -14 51 -54 77 -60 l27 -7 -23 -9 c-14 -5 -61
-3 -115 4 -50 7 -80 14 -66 16 14 2 29 8 35 13 5 5 19 9 32 9 17 0 21 4 16 17
-4 10 -8 12 -10 6 -6 -18 -33 -3 -33 17 0 13 6 16 24 13 29 -6 41 11 37 53
l-2 31 60 -1 c34 0 61 -4 61 -9z m56 -24 c-10 -10 -19 5 -10 18 6 11 8 11 12
0 2 -7 1 -15 -2 -18z m54 23 c0 -2 -3 -11 -6 -20 -9 -23 -24 -20 -24 4 0 11 7
20 15 20 8 0 15 -2 15 -4z m-290 -25 c0 -5 -7 -11 -15 -15 -15 -5 -20 5 -8 17
9 10 23 9 23 -2z m125 -91 c3 -5 -3 -10 -14 -10 -12 0 -21 5 -21 10 0 6 6 10
14 10 8 0 18 -4 21 -10z m-150 -108 c-3 -3 -11 0 -18 7 -9 10 -8 11 6 5 10 -3
15 -9 12 -12z m380 8 c8 -13 -5 -13 -25 0 -13 8 -13 10 2 10 9 0 20 -4 23 -10z
m-222 -8 c8 -12 -27 -49 -54 -57 -13 -4 -29 -15 -36 -24 -10 -13 -12 -8 -13
30 0 25 3 49 7 52 9 10 91 9 96 -1z m174 -13 c61 -2 61 -2 50 -26 -6 -13 -16
-22 -23 -19 -7 3 -15 0 -18 -7 -2 -7 -5 -2 -5 11 -1 32 -25 27 -56 -10 l-26
-33 3 35 c2 24 -1 34 -9 33 -7 -2 -13 4 -13 13 0 10 6 13 18 10 9 -3 45 -6 79
-7z m128 -29 c-15 -29 -55 -63 -64 -55 -2 3 5 16 17 28 12 13 19 27 15 32 -5
4 -2 5 5 1 9 -5 15 -1 19 13 3 11 9 18 14 15 5 -3 2 -18 -6 -34z m-462 -30
c-3 -12 -8 -19 -11 -16 -5 6 5 36 12 36 2 0 2 -9 -1 -20z m456 -86 c-14 -18
-24 -11 -15 11 3 9 11 13 16 10 8 -5 7 -11 -1 -21z m-667 -136 c-7 -7 -12 -8
-12 -2 0 14 12 26 19 19 2 -3 -1 -11 -7 -17z m145 -14 c-3 -3 -12 -4 -19 -1
-8 3 -5 6 6 6 11 1 17 -2 13 -5z m100 -10 c-3 -3 -12 -4 -19 -1 -8 3 -5 6 6 6
11 1 17 -2 13 -5z m273 -24 c0 -5 -4 -10 -10 -10 -5 0 -10 5 -10 10 0 6 5 10
10 10 6 0 10 -4 10 -10z m-30 -60 c0 -5 -7 -10 -15 -10 -8 0 -15 5 -15 10 0 6
7 10 15 10 8 0 15 -4 15 -10z m100 0 c0 -5 -9 -10 -19 -10 -11 0 -23 5 -26 10
-4 6 5 10 19 10 14 0 26 -4 26 -10z"/>
<path d="M3975 3170 c-3 -5 1 -10 9 -10 9 0 16 5 16 10 0 6 -4 10 -9 10 -6 0
-13 -4 -16 -10z"/>
<path d="M2846 3124 c-5 -25 -11 -34 -21 -30 -9 3 -19 -4 -26 -16 -14 -27 5
-66 38 -74 13 -4 23 -11 23 -16 0 -6 -7 -7 -16 -4 -9 4 -23 1 -30 -5 -14 -12
-15 -10 -18 24 -1 6 -10 17 -21 22 -11 6 -20 19 -20 30 0 11 -7 23 -15 27 -12
5 -12 7 3 7 9 1 17 8 17 16 0 36 -49 -1 -50 -38 0 -13 -6 -17 -22 -15 -21 3
-23 -1 -20 -32 5 -56 13 -94 26 -109 9 -12 8 -13 -6 -8 -14 5 -18 1 -18 -15 0
-11 -7 -26 -16 -33 -14 -10 -13 -16 17 -58 18 -26 36 -47 40 -47 9 0 16 33 18
85 1 22 7 44 13 50 8 7 9 5 4 -9 -5 -14 -2 -17 9 -12 8 3 15 1 15 -4 0 -23 18
-7 24 20 3 17 12 30 20 30 8 0 18 4 21 10 3 6 -1 7 -9 4 -27 -10 -18 12 10 24
18 9 31 9 45 2 16 -9 21 -7 31 15 9 19 9 31 1 44 -8 13 -7 22 3 36 9 12 12 31
8 57 -6 37 -5 38 22 39 25 0 26 2 9 9 -11 5 -39 9 -61 9 -40 1 -42 0 -48 -35z"/>
<path d="M3011 3134 c0 -11 3 -14 6 -6 3 7 2 16 -1 19 -3 4 -6 -2 -5 -13z"/>
<path d="M3102 3120 c0 -14 2 -19 5 -12 2 6 2 18 0 25 -3 6 -5 1 -5 -13z"/>
<path d="M3207 3113 c-3 -5 -8 -23 -12 -40 -3 -18 -11 -33 -17 -33 -6 0 -8
-14 -4 -37 l7 -38 -20 32 c-11 17 -29 37 -40 43 -12 6 -21 19 -21 29 0 21 -19
31 -57 31 -18 0 -24 -5 -21 -17 4 -17 15 -20 47 -12 8 2 17 -4 19 -15 2 -11 0
-16 -7 -12 -11 7 -6 -71 6 -104 3 -8 5 -25 4 -37 -3 -29 16 -38 29 -13 14 27
38 26 42 -2 4 -20 6 -18 14 12 6 20 18 37 30 40 18 5 21 10 32 58 3 18 1 21
-13 16 -15 -6 -17 -1 -14 50 4 57 4 62 -4 49z"/>
<path d="M3458 3103 c7 -3 16 -2 19 1 4 3 -2 6 -13 5 -11 0 -14 -3 -6 -6z"/>
<path d="M3221 3073 c0 -5 4 -17 9 -28 8 -18 9 -17 9 8 1 15 -3 27 -9 27 -5 0
-10 -3 -9 -7z"/>
<path d="M3805 3060 c3 -5 8 -10 11 -10 2 0 4 5 4 10 0 6 -5 10 -11 10 -5 0
-7 -4 -4 -10z"/>
<path d="M2982 3031 c-10 -6 -10 -10 3 -21 13 -11 15 -9 15 9 0 24 0 24 -18
12z"/>
<path d="M3780 3025 c-10 -12 -9 -16 3 -21 9 -3 13 -12 10 -20 -6 -17 6 -18
43 -3 l28 10 -29 24 c-36 29 -39 29 -55 10z"/>
<path d="M3706 3021 c-3 -5 1 -11 9 -14 9 -4 12 -1 8 9 -6 16 -10 17 -17 5z"/>
<path d="M2970 2989 c0 -5 -4 -7 -10 -4 -5 3 -10 -1 -10 -10 0 -9 -4 -13 -10
-10 -5 3 -10 -3 -10 -14 0 -10 4 -21 9 -23 5 -2 4 -14 -1 -28 -10 -24 -10 -25
-18 -4 -13 34 -35 35 -74 2 -38 -31 -49 -55 -18 -40 9 5 37 8 62 6 78 -6 143
-5 149 2 3 4 1 9 -5 11 -7 2 -9 22 -6 53 4 46 3 50 -22 60 -34 12 -36 12 -36
-1z"/>
<path d="M3922 2987 c-7 -8 -6 -18 4 -31 11 -16 14 -17 14 -4 0 9 3 23 6 32 7
19 -9 21 -24 3z"/>
<path d="M3291 2972 c-7 -13 -10 -31 -8 -40 3 -13 7 -10 16 12 15 37 9 59 -8
28z"/>
<path d="M3836 2955 c-4 -12 -2 -13 12 -7 9 5 24 12 32 15 9 3 4 6 -11 6 -15
1 -29 -6 -33 -14z"/>
<path d="M3040 2909 c0 -5 5 -7 10 -4 6 3 10 8 10 11 0 2 -4 4 -10 4 -5 0 -10
-5 -10 -11z"/>
<path d="M3250 2895 c-13 -16 -3 -20 24 -9 9 3 13 10 10 15 -8 13 -20 11 -34
-6z"/>
<path d="M2491 2884 c0 -11 3 -14 6 -6 3 7 2 16 -1 19 -3 4 -6 -2 -5 -13z"/>
<path d="M3953 2749 c-18 -18 -3 -49 23 -49 20 0 24 5 24 30 0 22 -5 30 -18
30 -10 0 -23 -5 -29 -11z"/>
<path d="M3883 2726 c4 -10 1 -13 -8 -10 -10 4 -12 0 -8 -15 6 -24 33 -50 33
-32 0 6 10 12 23 12 16 1 18 2 5 6 -16 4 -22 15 -20 35 1 3 -6 9 -14 12 -11 4
-15 2 -11 -8z"/>
<path d="M298 2683 c7 -3 16 -2 19 1 4 3 -2 6 -13 5 -11 0 -14 -3 -6 -6z"/>
<path d="M87 2633 c4 -16 7 -44 7 -63 l1 -35 75 -7 c41 -4 129 -9 195 -12 66
-2 156 -9 199 -15 58 -8 83 -8 93 0 10 9 13 8 13 0 0 -8 17 -11 53 -9 45 3 52
6 55 25 4 24 4 24 -180 43 -124 13 -161 13 -153 0 4 -6 11 -8 16 -5 5 4 9 1 9
-6 0 -8 -21 -10 -82 -4 -88 7 -138 23 -83 26 34 2 -28 13 -128 24 -37 4 -55
10 -51 17 5 7 44 9 120 4 90 -5 114 -4 114 6 0 9 3 10 8 2 9 -14 44 -14 39 -1
-2 6 -12 12 -23 14 -37 6 -220 22 -262 23 -41 0 -42 -1 -35 -27z"/>
<path d="M2920 2644 c0 -8 5 -12 10 -9 6 3 10 10 10 16 0 5 -4 9 -10 9 -5 0
-10 -7 -10 -16z"/>
<path d="M560 2631 c-8 -6 -18 -7 -23 -4 -5 3 -7 -3 -5 -13 5 -29 41 -29 55 1
12 27 2 33 -27 16z"/>
<path d="M870 2630 c0 -5 7 -7 15 -4 8 4 15 8 15 10 0 2 -7 4 -15 4 -8 0 -15
-4 -15 -10z"/>
<path d="M422 2618 c3 -7 25 -14 51 -16 37 -2 47 0 47 12 0 12 -12 16 -51 16
-36 0 -49 -4 -47 -12z"/>
<path d="M871 2553 c0 -10 4 -27 9 -38 7 -17 9 -15 9 12 1 17 -3 35 -9 38 -5
3 -10 -2 -9 -12z"/>
<path d="M3992 2540 c0 -14 2 -19 5 -12 2 6 2 18 0 25 -3 6 -5 1 -5 -13z"/>
<path d="M2620 2506 c0 -22 11 -46 21 -46 4 0 6 7 3 15 -4 9 0 15 10 15 9 0
16 5 16 11 0 6 -7 9 -15 5 -8 -3 -15 -1 -15 4 0 6 -4 10 -10 10 -5 0 -10 -6
-10 -14z"/>
<path d="M125 2481 c15 -7 16 -10 5 -11 -8 -2 -18 -2 -22 -1 -5 0 -8 -5 -8
-11 0 -7 -5 -42 -10 -78 -6 -44 -6 -66 1 -71 6 -3 36 -7 68 -8 31 -1 70 -4 86
-6 27 -4 112 20 125 34 3 4 38 6 78 6 l72 0 0 -28 c0 -15 -7 -30 -15 -33 -10
-4 -15 -20 -15 -46 0 -23 -4 -37 -10 -33 -6 3 -10 16 -10 28 0 20 -5 22 -63
22 -67 1 -220 12 -277 21 -20 3 -48 1 -62 -5 -19 -7 -31 -6 -47 5 -20 14 -21
14 -21 -11 0 -18 4 -24 13 -18 24 15 65 11 70 -8 3 -11 18 -20 42 -25 38 -7
55 -31 55 -80 0 -28 16 -33 23 -6 3 9 5 -4 6 -30 1 -39 -3 -50 -24 -66 -30
-24 -32 -57 -5 -72 13 -7 20 -21 20 -41 0 -27 -6 -33 -52 -54 -29 -13 -74 -29
-100 -36 -27 -6 -48 -17 -48 -24 0 -17 199 50 222 75 21 22 23 54 14 190 -6
84 -5 109 7 124 9 12 19 16 27 11 7 -5 42 -7 78 -6 43 2 62 -1 57 -8 -3 -6 1
-11 9 -11 9 0 16 -4 16 -10 0 -5 5 -10 11 -10 5 0 7 4 4 10 -3 6 1 7 9 4 10
-4 16 -1 16 7 1 19 40 -29 40 -47 0 -13 -11 -19 -69 -40 -31 -11 0 -14 38 -4
48 13 61 35 61 108 0 29 3 42 9 34 10 -16 81 -6 86 12 19 73 38 126 46 126 5
0 9 6 9 14 0 8 9 18 20 21 11 3 20 10 20 15 0 5 -6 7 -13 4 -22 -8 -100 13
-109 30 -5 10 -22 16 -41 16 -24 0 -28 -3 -17 -10 24 -15 -15 -13 -41 3 -17
10 -23 10 -26 0 -6 -15 -93 -18 -93 -3 0 6 8 11 18 11 39 3 -81 18 -188 23
-75 4 -108 3 -95 -3z m363 -98 c4 -15 -41 -17 -128 -6 -45 6 -51 8 -30 14 40
12 153 6 158 -8z m156 -4 c16 -15 0 -21 -58 -22 -45 -2 -56 1 -56 14 0 9 3 19
6 22 9 8 96 -3 108 -14z m-107 -76 c-3 -10 -5 -4 -5 12 0 17 2 24 5 18 2 -7 2
-21 0 -30z"/>
<path d="M1231 2410 c-6 -18 -6 -28 -1 -25 6 4 10 13 10 21 0 8 5 14 10 14 6
0 10 5 10 10 0 22 -19 8 -29 -20z"/>
<path d="M2665 2420 c11 -5 27 -9 35 -9 9 0 8 4 -5 9 -11 5 -27 9 -35 9 -9 0
-8 -4 5 -9z"/>
<path d="M2662 2399 c2 -7 37 -25 78 -40 93 -35 132 -54 193 -97 27 -18 51
-32 53 -30 7 7 -164 116 -200 128 -26 8 -34 16 -30 28 5 14 4 15 -4 2 -9 -12
-15 -12 -47 3 -42 20 -48 21 -43 6z"/>
<path d="M1160 2345 c0 -8 2 -15 4 -15 2 0 6 7 10 15 3 8 1 15 -4 15 -6 0 -10
-7 -10 -15z"/>
<path d="M1205 2320 c4 -14 14 -32 21 -41 8 -8 14 -20 14 -26 0 -5 7 -10 15
-10 8 0 15 6 15 14 0 7 -4 13 -8 13 -5 0 -21 17 -36 38 -23 30 -26 32 -21 12z"/>
<path d="M405 2280 c28 -12 37 -12 30 0 -3 6 -16 10 -28 9 -21 0 -21 -1 -2 -9z"/>
<path d="M703 2197 c9 -26 81 -129 105 -150 11 -10 26 -20 34 -21 7 -1 24 -8
38 -15 l25 -14 -25 25 c-14 14 -35 30 -47 37 -13 6 -23 17 -23 24 0 7 -26 39
-57 72 -31 33 -53 52 -50 42z"/>
<path d="M555 2180 c3 -5 15 -10 26 -10 10 0 19 5 19 10 0 6 -12 10 -26 10
-14 0 -23 -4 -19 -10z"/>
<path d="M39 2160 c13 -11 28 -20 35 -20 6 1 0 10 -13 20 -13 11 -28 20 -35
20 -6 -1 0 -10 13 -20z"/>
<path d="M2705 2159 c-16 -5 -55 -11 -85 -15 -30 -3 -66 -7 -80 -9 -14 -2 -54
-7 -90 -10 -36 -4 -76 -12 -89 -16 -23 -9 -23 -10 -5 -30 18 -20 21 -51 13
-141 -2 -25 3 -43 15 -57 12 -13 16 -28 12 -44 -4 -16 0 -29 9 -37 8 -7 15
-22 15 -34 0 -17 -2 -18 -10 -6 -7 11 -10 6 -10 -22 0 -20 5 -40 10 -43 6 -3
10 -11 10 -16 0 -6 -5 -7 -11 -3 -8 4 -8 0 0 -15 7 -11 8 -21 3 -21 -4 0 -9
-14 -10 -31 -2 -24 1 -30 12 -26 15 6 32 -26 28 -50 -2 -7 6 -23 18 -35 35
-38 26 -50 -35 -46 -33 2 -55 8 -55 14 0 8 15 10 45 6 39 -4 45 -2 39 12 -3 9
-10 16 -14 16 -4 0 -13 13 -19 28 -13 30 -55 44 -44 14 3 -9 11 -24 17 -32 6
-9 2 -8 -11 3 -21 18 -21 18 -29 -5 -7 -22 -7 -22 -15 7 -12 43 -19 117 -22
217 -1 61 -5 84 -13 77 -6 -5 -11 -22 -12 -37 0 -16 -12 -54 -26 -86 -14 -32
-26 -68 -26 -80 0 -11 -10 -55 -21 -96 -12 -41 -21 -97 -20 -125 1 -43 30
-140 51 -170 4 -5 10 -22 13 -36 7 -29 103 -139 122 -139 7 0 31 -13 53 -30
23 -16 52 -30 64 -30 54 0 154 -32 180 -57 l27 -26 40 21 c22 12 63 24 91 28
58 8 55 26 -4 26 -20 0 -36 1 -36 3 0 2 19 13 43 24 27 13 74 23 130 27 48 4
85 10 81 13 -3 3 -11 6 -17 7 -7 0 -25 2 -42 4 -20 1 -24 4 -12 7 12 3 16 10
13 20 -6 14 4 15 79 11 47 -3 85 -2 85 3 0 13 -16 19 -60 23 -59 5 -59 13 2
23 l53 10 -79 1 c-50 0 -82 5 -86 13 -5 8 -22 10 -49 6 -35 -4 -40 -3 -30 9 8
9 8 18 1 27 -5 6 -13 23 -17 36 l-7 23 151 -5 c95 -4 153 -2 157 4 9 15 4 17
-56 20 -30 1 -59 5 -65 8 -5 3 -21 7 -35 9 -13 2 -30 7 -36 13 -6 5 -14 6 -17
2 -4 -3 -7 -1 -7 6 0 8 -8 10 -22 7 -13 -3 -18 -3 -11 0 7 3 9 12 6 20 -3 7
-9 12 -13 9 -9 -6 -70 63 -70 79 0 6 4 17 9 25 9 14 -13 44 -40 53 -8 3 4 9
26 13 68 12 132 35 149 54 15 17 15 18 -14 19 -16 0 -39 3 -49 7 -11 3 -22 1
-26 -5 -3 -6 -11 -8 -16 -4 -12 7 -58 17 -86 18 -47 2 -21 14 40 18 34 2 86
15 115 28 59 26 66 39 8 15 -39 -16 -99 -14 -121 5 -7 5 -14 7 -18 4 -3 -3 -3
3 0 15 3 12 9 21 14 21 5 0 7 10 4 23 -5 19 3 27 54 57 32 19 57 38 55 42 -3
5 -12 1 -20 -7 -18 -17 -64 -20 -64 -4 0 6 -12 -3 -26 -20 -14 -18 -35 -36
-46 -42 -18 -10 -18 -9 -8 11 12 23 -1 50 -24 50 -6 0 -4 -5 4 -11 11 -8 8 -9
-14 -4 -26 5 -27 5 -12 -10 19 -20 20 -32 4 -38 -7 -2 -26 10 -41 27 -22 24
-26 26 -17 8 9 -18 9 -27 -1 -38 -9 -11 -9 -14 1 -14 7 0 10 -7 6 -16 -5 -14
-4 -15 9 -4 13 10 15 9 15 -9 0 -24 -24 -54 -34 -44 -3 4 -6 1 -6 -4 0 -6 4
-13 8 -15 5 -1 -4 -20 -19 -42 l-29 -38 -10 28 c-6 16 -9 36 -7 46 3 10 1 21
-4 24 -5 3 -9 12 -9 20 0 10 8 6 25 -12 18 -19 25 -23 25 -11 0 8 -7 23 -15
31 -20 19 -44 103 -40 136 4 36 5 37 15 15 8 -19 9 -19 9 2 1 15 -8 24 -29 32
-16 5 -30 15 -30 22 0 7 -3 9 -7 5 -9 -9 -10 -39 -2 -46 4 -3 3 -14 -2 -25 -6
-17 -8 -17 -8 -2 -1 9 -4 17 -9 17 -9 0 -9 -116 1 -126 4 -4 4 7 1 26 -5 24
-4 31 4 26 14 -9 16 -66 2 -66 -6 0 -6 -9 0 -26 6 -14 10 -41 10 -59 0 -22 8
-42 23 -56 12 -12 17 -19 10 -15 -7 3 -14 -2 -18 -14 -7 -24 -18 -25 -34 -6
-7 9 -23 12 -41 9 -32 -4 -42 12 -12 20 16 4 16 5 0 6 -10 0 -18 9 -17 19 0
10 3 12 6 5 8 -21 22 -15 16 7 -3 11 -9 18 -13 15 -4 -3 -10 6 -12 20 -3 14
-1 25 4 25 5 0 6 5 2 12 -12 19 -22 88 -13 88 5 0 9 -5 9 -12 0 -6 3 -8 6 -5
4 4 2 12 -3 19 -13 17 -22 78 -11 78 12 0 10 28 -3 32 -14 5 0 38 17 38 23 0
16 18 -8 23 -20 3 -19 5 10 12 20 5 32 14 32 25 0 23 -11 32 -26 20 -8 -8 -8
0 2 27 8 21 17 46 21 56 7 21 22 22 29 2 4 -8 10 -15 16 -15 5 0 6 5 2 12 -5
7 -3 8 6 3 8 -5 11 -25 8 -61 -3 -30 -3 -54 -1 -54 13 0 34 33 29 45 -3 8 -1
15 5 15 17 0 39 27 39 48 0 29 12 55 19 44 3 -5 17 -13 31 -17 14 -4 22 -4 18
0 -3 3 -2 20 2 36 5 16 8 29 7 28 -1 0 -15 -5 -32 -10z m-202 -186 c-7 -2 -19
-2 -25 0 -7 3 -2 5 12 5 14 0 19 -2 13 -5z m27 -504 c0 -10 -32 -21 -39 -14
-3 3 1 10 8 15 8 5 11 16 7 26 -6 18 -5 17 9 0 8 -11 15 -23 15 -27z m45 21
c-4 -6 -10 -8 -15 -5 -4 3 -11 -1 -13 -7 -3 -8 -6 -6 -6 5 -1 11 6 17 20 17
11 0 17 -5 14 -10z m127 -31 c-2 -21 -21 -43 -30 -34 -2 2 -1 18 3 35 8 36 31
35 27 -1z m-172 -19 c0 -5 -5 -10 -11 -10 -5 0 -7 5 -4 10 3 6 8 10 11 10 2 0
4 -4 4 -10z m-50 -14 c0 -9 -30 -14 -35 -6 -4 6 3 10 14 10 12 0 21 -2 21 -4z
m80 -26 c0 -5 -5 -10 -11 -10 -5 0 -7 5 -4 10 3 6 8 10 11 10 2 0 4 -4 4 -10z
m135 -10 c-3 -11 -2 -35 3 -54 9 -30 7 -35 -9 -39 -10 -3 -19 -11 -19 -17 0
-8 9 -10 24 -6 17 4 26 1 30 -11 4 -9 4 -18 1 -21 -3 -3 -5 0 -5 7 0 7 -5 9
-10 6 -7 -4 -7 -11 -2 -18 5 -7 17 -37 26 -67 10 -30 22 -65 28 -77 8 -16 7
-32 -6 -63 -9 -22 -13 -52 -10 -65 4 -17 0 -26 -14 -34 -16 -8 -25 -6 -46 14
-15 14 -34 25 -42 25 -8 0 -12 5 -9 10 3 6 -3 10 -13 10 -11 0 -22 7 -26 15
-4 10 1 15 16 15 l21 0 -22 24 c-17 18 -19 25 -9 29 9 3 7 7 -7 13 -11 5 -21
17 -21 26 -2 16 1 16 27 3 33 -17 64 -20 34 -3 -34 19 -74 55 -68 62 3 3 0 13
-7 21 -11 13 -10 19 6 38 11 12 37 56 59 98 26 50 45 75 57 76 14 1 17 -3 13
-17z m-230 -30 c-3 -5 -11 -10 -16 -10 -6 0 -7 5 -4 10 3 6 11 10 16 10 6 0 7
-4 4 -10z"/>
<path d="M2650 1350 c0 -5 5 -10 11 -10 5 0 7 5 4 10 -3 6 -8 10 -11 10 -2 0
-4 -4 -4 -10z"/>
<path d="M368 2143 c6 -2 18 -2 25 0 6 3 1 5 -13 5 -14 0 -19 -2 -12 -5z"/>
<path d="M1086 2135 c4 -8 7 -15 9 -15 2 0 5 7 9 15 3 9 0 15 -9 15 -9 0 -12
-6 -9 -15z"/>
<path d="M1261 2114 c0 -11 3 -14 6 -6 3 7 2 16 -1 19 -3 4 -6 -2 -5 -13z"/>
<path d="M1302 2110 c0 -14 2 -19 5 -12 2 6 2 18 0 25 -3 6 -5 1 -5 -13z"/>
<path d="M15 2110 c3 -5 8 -10 11 -10 2 0 4 5 4 10 0 6 -5 10 -11 10 -5 0 -7
-4 -4 -10z"/>
<path d="M738 2095 c18 -34 41 -61 42 -47 0 7 -12 25 -26 40 -18 19 -23 21
-16 7z"/>
<path d="M34 2071 c-30 -15 -32 -19 -33 -83 l-1 -67 44 -6 c63 -10 80 -4 84
28 3 28 -14 37 -35 16 -8 -8 -17 -6 -32 7 -26 22 -26 31 -3 37 18 4 16 6 -35
23 -19 6 -16 10 34 40 30 19 11 23 -23 5z"/>
<path d="M726 2055 c-9 -26 -7 -32 5 -12 6 10 9 21 6 23 -2 3 -7 -2 -11 -11z"/>
<path d="M2557 2045 c-4 -8 -2 -17 2 -20 5 -2 11 4 14 15 6 23 -8 27 -16 5z"/>
<path d="M2665 2040 c-3 -5 -1 -10 4 -10 6 0 11 5 11 10 0 6 -2 10 -4 10 -3 0
-8 -4 -11 -10z"/>
<path d="M273 2033 c-18 -3 -23 -11 -23 -33 0 -49 8 -59 40 -50 19 5 30 5 33
-3 4 -13 67 10 67 24 0 5 11 9 24 9 14 0 28 5 31 10 4 6 -22 10 -72 10 -90 0
-121 12 -77 28 29 11 18 13 -23 5z"/>
<path d="M1350 2020 c0 -11 2 -20 4 -20 2 0 6 9 9 20 3 11 1 20 -4 20 -5 0 -9
-9 -9 -20z"/>
<path d="M757 1995 c10 -13 25 -25 33 -25 10 -1 11 -3 3 -7 -7 -2 -13 -9 -13
-14 0 -4 7 -6 15 -3 19 8 20 44 1 44 -7 0 -19 7 -26 15 -21 25 -32 17 -13 -10z"/>
<path d="M2278 1995 c3 -19 8 -23 15 -16 8 8 7 16 -5 27 -14 14 -15 14 -10
-11z"/>
<path d="M2661 2004 c0 -11 3 -14 6 -6 3 7 2 16 -1 19 -3 4 -6 -2 -5 -13z"/>
<path d="M2540 1965 c0 -58 13 -73 34 -40 16 24 16 26 -9 53 l-25 27 0 -40z"/>
<path d="M2633 1973 c2 -10 8 -27 14 -38 11 -18 12 -17 8 10 -2 17 -4 33 -4
38 -1 4 -5 7 -11 7 -5 0 -9 -8 -7 -17z"/>
<path d="M2610 1978 c-1 -5 -3 -11 -4 -15 -1 -5 -5 -14 -10 -21 -10 -16 -3
-25 16 -20 10 2 12 12 7 33 -4 17 -8 27 -9 23z"/>
<path d="M820 1940 c-13 -8 -12 -10 3 -10 9 0 17 -4 17 -10 0 -5 7 -10 15 -10
8 0 15 5 15 10 0 6 -6 10 -14 10 -8 0 -16 4 -18 10 -2 6 -8 6 -18 0z"/>
<path d="M881 1913 c-1 -17 5 -23 19 -23 11 0 20 5 20 10 0 6 -6 10 -14 10 -8
0 -17 6 -19 13 -3 6 -6 2 -6 -10z"/>
<path d="M2490 1900 c0 -5 4 -10 9 -10 6 0 13 5 16 10 3 6 -1 10 -9 10 -9 0
-16 -4 -16 -10z"/>
<path d="M2530 1875 c0 -8 5 -15 10 -15 6 0 10 7 10 15 0 8 -4 15 -10 15 -5 0
-10 -7 -10 -15z"/>
<path d="M530 1876 c0 -17 31 -64 46 -70 27 -10 25 -3 -12 38 -19 21 -34 35
-34 32z"/>
<path d="M2505 1870 c-5 -9 -4 -15 3 -18 7 -2 12 -16 13 -30 l1 -27 7 25 c4
14 4 27 1 30 -4 3 -9 12 -12 20 -4 12 -6 12 -13 0z"/>
<path d="M2770 1860 c0 -11 7 -20 15 -20 8 0 15 6 15 14 0 8 -7 16 -15 20 -10
4 -15 -1 -15 -14z"/>
<path d="M2700 1866 c0 -2 7 -7 16 -10 8 -3 12 -2 9 4 -6 10 -25 14 -25 6z"/>
<path d="M2666 1841 c-3 -5 0 -12 6 -14 10 -4 9 -8 -2 -16 -9 -6 -10 -11 -3
-11 6 0 14 -8 16 -17 3 -10 5 -3 6 15 0 17 1 35 2 39 1 12 -19 15 -25 4z"/>
<path d="M2631 1814 c0 -11 3 -14 6 -6 3 7 2 16 -1 19 -3 4 -6 -2 -5 -13z"/>
<path d="M3307 1819 c7 -7 15 -10 18 -7 3 3 -2 9 -12 12 -14 6 -15 5 -6 -5z"/>
<path d="M3237 1813 c-4 -3 -1 -13 6 -21 9 -12 9 -16 0 -19 -7 -2 -9 -11 -6
-19 4 -11 14 -13 34 -9 25 6 28 4 22 -11 -4 -12 -3 -15 5 -10 19 11 14 34 -8
41 -11 4 -18 11 -15 16 4 5 1 9 -4 9 -6 0 -11 7 -11 15 0 16 -12 20 -23 8z"/>
<path d="M3535 1810 c-3 -5 -1 -10 4 -10 6 0 11 5 11 10 0 6 -2 10 -4 10 -3 0
-8 -4 -11 -10z"/>
<path d="M866 1786 c4 -11 0 -13 -17 -9 -14 4 -20 2 -16 -5 10 -15 42 -8 45
11 2 10 -1 17 -7 17 -6 0 -8 -6 -5 -14z"/>
<path d="M1381 1784 c0 -11 3 -14 6 -6 3 7 2 16 -1 19 -3 4 -6 -2 -5 -13z"/>
<path d="M3653 1784 c15 -8 27 -19 27 -25 0 -6 -7 -6 -19 1 -26 13 -52 13 -28
-1 21 -12 22 -29 2 -29 -9 0 -12 -6 -8 -16 3 -9 0 -20 -8 -26 -11 -8 -11 -9 3
-5 21 7 22 -21 2 -79 -12 -34 -20 -43 -47 -48 -23 -5 -28 -9 -18 -15 11 -7 10
-11 -5 -20 -18 -10 -17 -10 4 -11 13 0 21 -4 17 -10 -3 -5 -12 -7 -20 -3 -8 3
-15 1 -15 -4 0 -5 -9 -9 -20 -10 -11 -1 -18 2 -15 8 8 12 3 11 -30 -1 -14 -5
-24 -14 -20 -19 8 -14 -32 -33 -55 -26 -23 7 -27 25 -5 25 8 0 15 -5 15 -12 0
-25 15 5 16 33 1 23 -3 30 -22 35 -13 3 -24 10 -24 15 0 14 16 10 41 -10 21
-17 25 -17 46 -4 13 9 23 23 23 32 0 14 2 14 10 1 8 -12 10 -10 10 9 0 20 -2
21 -15 11 -8 -7 -15 -20 -15 -29 0 -9 -9 2 -19 24 -17 39 -17 40 1 47 10 4 23
19 30 32 6 14 14 23 19 21 4 -3 10 -1 14 5 12 19 21 10 23 -22 5 -57 25 -49
35 13 5 36 5 36 -29 35 -18 -1 -45 -12 -58 -23 -26 -23 -93 -46 -108 -37 -4 3
-8 11 -8 19 0 8 -5 17 -12 21 -7 5 -9 2 -6 -8 4 -8 2 -21 -2 -29 -6 -8 -4 -16
3 -21 8 -5 4 -8 -9 -8 -27 0 -48 24 -40 46 4 12 0 15 -17 12 -30 -4 -34 -41
-7 -66 l22 -20 -22 -7 c-11 -4 -20 -10 -18 -13 2 -4 12 -26 23 -49 15 -33 26
-43 45 -44 18 -1 20 -3 7 -6 -29 -7 -16 -38 17 -41 20 -3 25 -6 16 -12 -21
-13 -1 -32 27 -25 18 4 24 2 21 -7 -3 -8 -17 -12 -36 -10 -25 3 -30 0 -28 -15
3 -20 31 -30 41 -14 3 6 13 11 21 11 9 0 25 10 36 23 11 12 17 16 13 10 -9
-18 20 -16 38 2 19 19 10 55 -13 55 -27 0 -33 -28 -7 -33 16 -3 13 -5 -10 -6
-32 -1 -32 -1 -18 26 13 25 20 28 70 28 38 0 55 -4 55 -13 0 -7 11 -17 25 -22
14 -5 25 -14 25 -19 0 -6 -7 -8 -15 -5 -8 4 -22 1 -30 -6 -12 -10 -15 -10 -15
0 0 7 -7 10 -15 6 -8 -3 -15 -1 -15 4 0 6 5 10 10 10 6 0 10 5 10 10 0 6 -4
10 -8 10 -14 0 -32 -48 -26 -67 4 -14 3 -15 -4 -5 -14 20 -55 -6 -48 -30 2
-10 -1 -18 -7 -18 -7 0 -5 -5 3 -10 13 -9 13 -11 1 -19 -8 -5 -15 -20 -16 -33
-1 -12 -8 -23 -16 -23 -8 0 -12 7 -11 15 11 46 12 61 3 56 -5 -4 -12 -2 -16 4
-10 16 -23 12 -30 -9 -3 -10 -20 -22 -37 -27 -17 -5 -33 -15 -36 -22 -2 -7 17
-34 42 -59 38 -38 48 -55 53 -92 3 -25 11 -52 17 -60 9 -12 8 -13 -6 -8 -21 7
-21 7 -22 -111 -1 -83 -1 -84 -38 -118 -40 -36 -46 -52 -25 -73 10 -10 9 -11
-5 -6 -11 5 -18 2 -18 -5 0 -6 -9 -23 -20 -37 -29 -37 -26 -46 28 -73 26 -14
49 -27 52 -30 3 -3 27 -23 54 -44 26 -22 64 -63 82 -93 37 -57 49 -66 40 -30
-3 12 -3 17 0 10 3 -7 11 -11 17 -9 7 1 9 1 5 -1 -13 -7 -9 -30 7 -43 8 -7 12
-17 9 -22 -4 -6 -10 -5 -15 3 -7 11 -9 11 -9 -3 0 -9 13 -21 30 -27 37 -12 40
-26 4 -17 l-26 7 5 -52 c6 -54 8 -57 70 -90 20 -10 37 -24 37 -29 0 -6 5 -10
11 -10 8 0 8 5 -1 15 -16 20 -6 20 74 -1 33 -8 67 -23 74 -32 9 -12 15 -13 23
-5 14 14 -18 62 -42 63 -26 0 -40 21 -24 36 7 8 15 18 17 23 4 11 68 2 68 -10
0 -4 -13 -9 -29 -11 l-29 -3 24 -30 c14 -16 22 -23 19 -13 -7 18 26 34 46 23
17 -11 79 5 79 20 0 7 -12 15 -27 17 -38 4 -41 27 -5 34 23 5 30 11 30 30 0
13 -4 22 -8 19 -7 -5 -70 68 -70 81 0 5 5 3 10 -2 6 -6 24 -9 40 -6 l30 4 0
109 c0 100 -2 109 -21 120 -19 10 -20 8 -14 -10 5 -17 2 -21 -14 -21 -11 0
-23 5 -27 12 -4 7 -3 8 4 4 7 -4 12 -2 12 3 0 6 -7 11 -15 11 -8 0 -15 5 -15
11 0 5 4 8 9 4 5 -3 12 -1 16 5 3 5 19 10 36 10 l29 0 0 91 c0 94 -12 138 -33
120 -8 -6 -18 -5 -31 5 -11 8 -16 14 -10 14 5 0 1 5 -8 11 -22 12 -23 35 -4
42 10 4 13 1 10 -7 -3 -7 2 -16 10 -19 10 -4 13 -13 9 -23 -5 -14 -3 -16 11
-11 10 4 19 7 21 7 2 0 1 10 -3 22 -4 16 -2 20 9 16 11 -4 16 2 17 22 3 33
-18 45 -44 25 -15 -11 -22 -10 -41 2 -13 8 -20 19 -17 24 3 5 -2 9 -10 9 -9 0
-16 8 -16 19 0 11 -4 23 -10 26 -19 12 -10 26 11 20 18 -6 20 -4 14 16 -7 22
-6 22 9 10 9 -8 15 -20 12 -27 -5 -13 8 -27 37 -37 11 -4 16 -3 12 3 -3 6 -14
10 -23 10 -12 0 -13 3 -4 12 9 9 16 8 30 -5 37 -34 42 -22 42 92 0 116 -9 139
-50 126 -14 -5 -20 -2 -20 10 0 9 5 13 10 10 6 -3 10 -2 10 3 0 14 -34 25 -38
13 -5 -16 -32 -13 -32 3 0 9 -7 12 -20 9 -15 -4 -20 0 -20 15 0 19 2 20 27 7
31 -16 49 -10 32 11 -9 11 -9 14 1 14 6 0 -5 17 -25 37 -33 33 -38 35 -46 20
-11 -18 -59 -24 -59 -7 0 6 -10 10 -21 10 -17 0 -20 -5 -16 -25 3 -17 0 -24
-7 -22 -6 3 -10 10 -8 17 2 7 -2 16 -9 20 -17 11 0 33 22 27 25 -7 30 4 14 27
-10 12 -20 16 -37 11 -16 -4 -19 -4 -9 3 8 6 15 23 16 39 5 67 4 65 29 59 35
-9 37 2 9 45 -21 32 -31 39 -54 37 -16 -1 -29 -7 -30 -13 0 -5 -4 1 -10 13
-10 27 -4 42 17 42 12 0 12 3 -1 24 -15 23 -15 24 16 35 31 11 32 12 14 31
-11 12 -30 20 -49 20 l-31 -1 28 -15z m27 -174 c0 -5 -4 -10 -10 -10 -5 0 -10
5 -10 10 0 6 5 10 10 10 6 0 10 -4 10 -10z m-313 -16 c-3 -3 -12 -4 -19 -1 -8
3 -5 6 6 6 11 1 17 -2 13 -5z m33 -98 c0 -3 -4 -8 -10 -11 -5 -3 -10 -1 -10 4
0 6 5 11 10 11 6 0 10 -2 10 -4z m276 -8 c5 -7 3 -8 -6 -3 -10 6 -12 4 -7 -9
6 -15 3 -17 -17 -12 -18 4 -28 1 -35 -11 -9 -15 -10 -15 -11 -2 0 8 15 22 33
31 17 8 33 16 34 17 1 0 5 -4 9 -11z m179 -104 c13 -5 14 -8 3 -15 -19 -13
-28 -11 -28 6 0 17 2 18 25 9z m-85 -24 c0 -5 -2 -10 -4 -10 -3 0 -8 5 -11 10
-3 6 -1 10 4 10 6 0 11 -4 11 -10z m50 -10 c0 -5 -4 -10 -10 -10 -5 0 -10 5
-10 10 0 6 5 10 10 10 6 0 10 -4 10 -10z m-306 -15 c-4 -10 0 -15 12 -15 16 0
17 -2 4 -10 -19 -12 -35 3 -27 24 4 9 9 16 11 16 3 0 3 -7 0 -15z m206 -26 c0
-6 -4 -7 -10 -4 -5 3 -10 11 -10 16 0 6 5 7 10 4 6 -3 10 -11 10 -16z m159
-70 c-8 -5 -21 -9 -29 -9 -12 1 -11 4 4 15 10 8 23 12 29 8 5 -3 3 -9 -4 -14z
m-479 -19 c0 -5 -2 -10 -4 -10 -3 0 -8 5 -11 10 -3 6 -1 10 4 10 6 0 11 -4 11
-10z m537 -6 c-3 -3 -12 -4 -19 -1 -8 3 -5 6 6 6 11 1 17 -2 13 -5z m-192 -24
c3 -5 -3 -10 -15 -10 -12 0 -18 5 -15 10 3 6 10 10 15 10 5 0 12 -4 15 -10z
m-58 -16 c-3 -3 -12 -4 -19 -1 -8 3 -5 6 6 6 11 1 17 -2 13 -5z m124 -74 c5 0
9 -6 9 -14 0 -9 -8 -12 -25 -8 -14 2 -25 11 -25 19 0 10 6 13 16 9 9 -3 20 -6
25 -6z m146 -37 c-4 -3 -7 -1 -7 6 0 8 -7 11 -15 7 -10 -4 -15 1 -15 15 0 20
0 20 22 -1 12 -11 18 -23 15 -27z m-216 16 c19 -16 20 -19 6 -15 -12 4 -17 2
-15 -6 7 -20 -20 -42 -36 -29 -21 17 -27 1 -10 -30 13 -25 13 -28 -1 -22 -9 3
-13 8 -10 11 3 3 -2 13 -11 23 -9 10 -14 25 -11 34 5 12 12 13 33 5 33 -13 39
-8 25 18 -21 39 -7 44 30 11z m129 11 c0 -5 -4 -10 -10 -10 -5 0 -10 5 -10 10
0 6 5 10 10 10 6 0 10 -4 10 -10z m-353 -71 c2 -12 -1 -18 -7 -14 -5 3 -10 16
-10 27 0 26 13 16 17 -13z m293 20 c11 -8 12 -12 3 -16 -7 -2 -13 -18 -13 -33
0 -16 -5 -32 -11 -36 -8 -4 -9 0 -4 15 6 21 -16 56 -29 44 -3 -4 -6 1 -6 10 0
13 10 20 40 26 3 0 12 -4 20 -10z m35 -19 c3 -5 1 -10 -4 -10 -6 0 -11 5 -11
10 0 6 2 10 4 10 3 0 8 -4 11 -10z m-85 -40 c0 -5 -4 -10 -10 -10 -5 0 -10 5
-10 10 0 6 5 10 10 10 6 0 10 -4 10 -10z m76 -38 c-9 -8 -26 10 -26 26 1 15 2
15 15 -2 8 -11 13 -21 11 -24z m-311 8 c3 -5 1 -10 -4 -10 -6 0 -11 5 -11 10
0 6 2 10 4 10 3 0 8 -4 11 -10z m-5 -36 c0 -8 -4 -12 -10 -9 -5 3 -10 10 -10
16 0 5 5 9 10 9 6 0 10 -7 10 -16z m298 -49 c-3 -3 -9 2 -12 12 -6 14 -5 15 5
6 7 -7 10 -15 7 -18z m-198 -21 c0 -8 -4 -12 -10 -9 -5 3 -10 10 -10 16 0 5 5
9 10 9 6 0 10 -7 10 -16z m-4 -98 c16 -17 19 -30 4 -21 -5 3 -10 2 -10 -3 0
-5 17 -21 38 -36 28 -21 31 -26 13 -21 -18 6 -22 4 -17 -6 4 -8 1 -6 -7 4 -8
9 -19 17 -24 17 -5 0 -10 6 -10 13 0 6 -4 24 -8 40 -8 30 -1 34 21 13z m-146
-37 c0 -6 -4 -7 -10 -4 -5 3 -10 11 -10 16 0 6 5 7 10 4 6 -3 10 -11 10 -16z
m352 8 c1 5 19 5 38 2 24 -4 28 -7 11 -8 -20 -1 -21 -3 -11 -16 11 -13 8 -15
-14 -15 -20 0 -26 -5 -26 -23 0 -13 5 -28 11 -34 9 -9 7 -10 -10 -6 -18 4 -21
12 -19 48 0 23 -3 48 -7 56 -7 12 -6 12 7 1 9 -7 18 -9 20 -5z m-262 -17 c0
-5 -5 -10 -11 -10 -5 0 -7 5 -4 10 3 6 8 10 11 10 2 0 4 -4 4 -10z m235 -18
c-3 -3 -11 0 -18 7 -9 10 -8 11 6 5 10 -3 15 -9 12 -12z m99 -28 c9 -24 7 -28
-9 -14 -17 14 -20 30 -6 30 5 0 12 -7 15 -16z m-124 -15 c0 -5 10 -19 22 -31
l21 -21 -23 6 c-13 3 -30 1 -37 -5 -9 -7 -14 -6 -19 5 -3 9 -13 13 -25 10 -28
-8 -23 10 6 24 15 6 25 7 25 1 0 -5 5 -6 10 -3 8 5 7 11 -1 21 -10 12 -9 13 5
8 9 -3 16 -10 16 -15z m-116 -24 c-4 -8 -8 -15 -10 -15 -2 0 -4 7 -4 15 0 8 4
15 10 15 5 0 7 -7 4 -15z m246 -58 c15 -12 33 -30 40 -41 9 -15 6 -14 -20 5
-49 37 -74 49 -87 44 -7 -2 -13 0 -13 4 0 12 22 20 39 15 7 -2 26 -14 41 -27z
m-269 -36 c0 -3 2 -19 4 -35 3 -25 2 -27 -10 -15 -7 8 -17 26 -20 42 -6 22 -4
26 9 21 9 -3 16 -9 17 -13z m93 -67 c4 -10 1 -14 -6 -12 -15 5 -23 28 -10 28
5 0 13 -7 16 -16z m99 -9 c8 -8 18 -11 22 -7 5 4 5 1 1 -6 -5 -8 4 -17 26 -27
32 -14 32 -14 7 -15 -28 0 -90 37 -97 58 -5 17 23 15 41 -3z m-183 -16 c0 -6
-4 -7 -10 -4 -5 3 -10 11 -10 16 0 6 5 7 10 4 6 -3 10 -11 10 -16z m109 -53
c7 -8 8 -16 4 -19 -11 -7 -45 18 -36 26 10 11 19 8 32 -7z m-74 -26 c3 -5 1
-10 -4 -10 -6 0 -11 5 -11 10 0 6 2 10 4 10 3 0 8 -4 11 -10z m243 -18 c-4
-20 -81 -36 -85 -17 -2 6 2 10 7 10 6 0 14 5 18 11 17 26 65 23 60 -4z m-198
-36 c0 -8 7 -16 15 -20 22 -8 18 -21 -9 -35 -18 -10 -28 -10 -46 -1 -17 9 -19
14 -10 20 9 6 7 11 -9 19 -33 18 -25 31 19 31 28 0 40 -4 40 -14z m240 -7 c0
-11 -27 -12 -34 0 -3 4 -3 11 0 14 8 8 34 -3 34 -14z m-164 -56 c-3 -3 -12 2
-21 10 -14 14 -14 17 2 26 14 8 19 6 21 -10 2 -12 1 -23 -2 -26z m104 25 c0
-6 -6 -5 -15 2 -8 7 -15 14 -15 16 0 2 7 1 15 -2 8 -4 15 -11 15 -16z m-137
-58 c10 0 15 -4 12 -10 -12 -19 -105 -8 -105 12 0 7 15 8 38 4 20 -3 45 -6 55
-6z"/>
<path d="M2653 1765 c0 -14 3 -25 8 -25 5 0 9 9 9 19 0 11 -4 22 -9 25 -5 3
-8 -6 -8 -19z"/>
<path d="M3570 1779 c0 -5 5 -7 10 -4 6 3 10 8 10 11 0 2 -4 4 -10 4 -5 0 -10
-5 -10 -11z"/>
<path d="M270 1770 c0 -5 14 -10 31 -10 17 0 28 4 24 10 -3 6 -17 10 -31 10
-13 0 -24 -4 -24 -10z"/>
<path d="M347 1769 c7 -7 15 -10 18 -7 3 3 -2 9 -12 12 -14 6 -15 5 -6 -5z"/>
<path d="M3324 1754 c2 -10 8 -20 14 -22 17 -5 15 13 -2 27 -12 10 -14 9 -12
-5z"/>
<path d="M3509 1723 c-13 -16 -12 -17 4 -4 9 7 17 15 17 17 0 8 -8 3 -21 -13z"/>
<path d="M2680 1715 c0 -8 5 -15 10 -15 6 0 10 7 10 15 0 8 -4 15 -10 15 -5 0
-10 -7 -10 -15z"/>
<path d="M3440 1705 c0 -8 5 -15 10 -15 6 0 10 7 10 15 0 8 -4 15 -10 15 -5 0
-10 -7 -10 -15z"/>
<path d="M430 1699 c0 -5 9 -9 20 -9 11 0 20 2 20 4 0 2 -9 6 -20 9 -11 3 -20
1 -20 -4z"/>
<path d="M530 1699 c0 -5 7 -9 15 -9 8 0 15 -4 15 -10 0 -5 4 -10 10 -10 5 0
7 6 4 14 -6 16 -44 29 -44 15z"/>
<path d="M490 1685 c7 -8 17 -15 22 -15 6 0 5 7 -2 15 -7 8 -17 15 -22 15 -6
0 -5 -7 2 -15z"/>
<path d="M592 1663 c2 -11 14 -17 36 -18 36 -2 39 2 15 21 -14 9 -21 10 -32 1
-12 -9 -13 -9 -7 1 4 7 2 12 -4 12 -6 0 -10 -8 -8 -17z"/>
<path d="M3335 1670 c-3 -5 -1 -10 4 -10 6 0 11 5 11 10 0 6 -2 10 -4 10 -3 0
-8 -4 -11 -10z"/>
<path d="M3680 1659 c0 -5 5 -7 10 -4 6 3 10 8 10 11 0 2 -4 4 -10 4 -5 0 -10
-5 -10 -11z"/>
<path d="M3490 1630 c0 -5 5 -10 10 -10 6 0 10 5 10 10 0 6 -4 10 -10 10 -5 0
-10 -4 -10 -10z"/>
<path d="M3768 1623 c7 -3 16 -2 19 1 4 3 -2 6 -13 5 -11 0 -14 -3 -6 -6z"/>
<path d="M3790 1590 c0 -5 4 -10 9 -10 6 0 13 5 16 10 3 6 -1 10 -9 10 -9 0
-16 -4 -16 -10z"/>
<path d="M2565 1560 c-3 -5 -1 -10 4 -10 6 0 11 5 11 10 0 6 -2 10 -4 10 -3 0
-8 -4 -11 -10z"/>
<path d="M525 1541 c-3 -5 -1 -12 5 -16 5 -3 10 1 10 9 0 18 -6 21 -15 7z"/>
<path d="M2115 1540 c-12 -20 4 -62 23 -58 23 4 24 61 0 66 -9 2 -19 -2 -23
-8z"/>
<path d="M3758 1523 c7 -3 16 -2 19 1 4 3 -2 6 -13 5 -11 0 -14 -3 -6 -6z"/>
<path d="M3970 1500 c0 -5 7 -10 15 -10 8 0 15 5 15 10 0 6 -7 10 -15 10 -8 0
-15 -4 -15 -10z"/>
<path d="M3784 1477 c-4 -7 -4 -9 1 -5 4 4 16 -4 27 -17 20 -25 42 -26 32 -1
-8 21 -52 38 -60 23z"/>
<path d="M3894 1463 c4 -40 24 -60 70 -68 34 -7 36 -6 36 18 0 36 -26 55 -53
38 -13 -8 -22 -10 -24 -4 -2 6 -10 19 -17 29 -13 17 -14 16 -12 -13z"/>
<path d="M323 1462 c-93 -20 -170 -98 -143 -143 5 -7 10 0 14 18 4 17 19 41
34 55 53 48 78 58 154 59 40 1 87 5 103 9 58 13 -99 16 -162 2z"/>
<path d="M580 1442 c36 -10 76 -24 90 -32 27 -14 80 -21 80 -10 0 7 -60 35
-95 44 -11 3 -47 7 -80 10 l-60 5 65 -17z"/>
<path d="M1023 1370 c-11 -16 -10 -18 2 -14 8 4 15 12 15 20 0 19 -3 18 -17
-6z"/>
<path d="M3930 1370 c-7 -14 -5 -59 3 -51 5 5 7 19 4 32 -2 13 -5 22 -7 19z"/>
<path d="M3975 1360 c-3 -5 -1 -10 4 -10 6 0 11 5 11 10 0 6 -2 10 -4 10 -3 0
-8 -4 -11 -10z"/>
<path d="M3433 1343 c-17 -6 -16 -23 1 -23 8 0 16 7 20 15 6 15 1 17 -21 8z"/>
<path d="M250 1280 c0 -5 5 -10 10 -10 6 0 10 5 10 10 0 6 -4 10 -10 10 -5 0
-10 -4 -10 -10z"/>
<path d="M3043 1213 c-7 -2 -13 -11 -13 -19 0 -10 13 -14 43 -15 165 -2 223
-13 272 -50 l40 -31 -37 36 c-26 24 -57 41 -105 55 -69 20 -178 33 -200 24z"/>
<path d="M3205 1140 c3 -5 16 -10 28 -9 21 0 21 1 2 9 -28 12 -37 12 -30 0z"/>
<path d="M214 1096 c-6 -16 23 -72 33 -63 7 8 -7 66 -18 73 -5 3 -12 -2 -15
-10z"/>
<path d="M3221 1106 c20 -16 99 -56 99 -49 0 5 -20 19 -45 31 -41 20 -66 28
-54 18z"/>
<path d="M3160 1060 c0 -5 4 -10 10 -10 5 0 37 -13 70 -29 33 -16 60 -26 60
-22 0 17 -39 42 -86 56 -59 18 -54 17 -54 5z"/>
<path d="M3916 995 c-3 -8 3 -19 13 -25 23 -12 36 11 18 29 -15 15 -24 14 -31
-4z"/>
<path d="M571 899 c-21 -35 -29 -85 -11 -74 6 3 10 17 10 31 0 14 4 23 9 20
16 -10 34 21 23 40 -9 16 -12 14 -31 -17z"/>
<path d="M128 903 c7 -3 16 -2 19 1 4 3 -2 6 -13 5 -11 0 -14 -3 -6 -6z"/>
<path d="M470 875 c0 -3 7 -14 16 -23 15 -14 16 -14 13 3 -4 17 -29 35 -29 20z"/>
<path d="M521 864 c0 -11 3 -14 6 -6 3 7 2 16 -1 19 -3 4 -6 -2 -5 -13z"/>
<path d="M2 810 c0 -14 2 -19 5 -12 2 6 2 18 0 25 -3 6 -5 1 -5 -13z"/>
<path d="M2684 661 c20 -22 26 -25 26 -13 0 4 -10 13 -22 21 -23 14 -23 14 -4
-8z"/>
<path d="M2790 555 c0 -12 40 -84 51 -90 5 -4 -1 16 -15 44 -24 46 -36 61 -36
46z"/>
<path d="M2970 431 c0 -5 5 -13 10 -16 6 -3 10 -2 10 4 0 5 -4 13 -10 16 -5 3
-10 2 -10 -4z"/>
<path d="M2830 423 c1 -4 12 -21 26 -38 l26 -30 -16 32 c-15 31 -36 52 -36 36z"/>
<path d="M2931 414 c0 -11 3 -14 6 -6 3 7 2 16 -1 19 -3 4 -6 -2 -5 -13z"/>
<path d="M3920 137 c0 -3 15 -10 32 -16 18 -6 28 -7 23 -2 -12 10 -55 25 -55
18z"/>
<path d="M3930 92 c0 -4 10 -16 21 -26 17 -14 23 -15 30 -5 4 8 1 18 -9 26
-19 14 -42 17 -42 5z"/>
<path d="M3560 70 c0 -5 5 -12 10 -15 19 -12 10 -26 -12 -20 -22 6 -22 6 -4
-9 11 -9 27 -16 35 -17 76 -5 91 -5 91 2 0 5 -16 11 -35 15 -19 3 -35 12 -35
19 0 6 -11 17 -25 23 -14 6 -25 7 -25 2z"/>
</g>
</svg>
